<?xml version="1.0" encoding="utf-8"?>
<!-- Generator: Adobe Illustrator 18.0.0, SVG Export Plug-In . SVG Version: 6.00 Build 0)  -->
<!DOCTYPE svg PUBLIC "-//W3C//DTD SVG 1.1//EN" "http://www.w3.org/Graphics/SVG/1.1/DTD/svg11.dtd">
<svg version="1.1" id="Layer_1" xmlns="http://www.w3.org/2000/svg" xmlns:xlink="http://www.w3.org/1999/xlink" x="0px" y="0px"
	 viewBox="0 0 50 50" enable-background="new 0 0 50 50" xml:space="preserve">
<g>
	<path fill="#ED331A" d="M46.7,14c-0.3-0.2-0.4-1.2-0.7-0.3C46.3,13.4,46.4,14.8,46.7,14z"/>
	<path fill="#ED331A" d="M48.6,15.5c0.3-0.4,0.2,1,0.4,0.2c-0.2-0.2-0.2-0.9-0.2-1.5C48.7,14.6,48.7,15,48.6,15.5z"/>
	<path fill="#ED331A" d="M48.2,17c0,0.8,1,1,0.3,0.1C48.5,17.1,48.3,16.3,48.2,17z"/>
	<path fill="#ED331A" d="M47.4,17.4c-0.1,0-0.2-0.1-0.2-0.4c-0.1,0.5-0.2,1.2-0.1,1.3C47.2,17.5,47.4,18.6,47.4,17.4z"/>
	<path fill="#ED331A" d="M47.4,22.2c-0.5-0.1-0.7-0.5-1.1-0.4c0-0.4,0-0.2-0.1,0c-0.2,0.5,0.2,0.2,0.2,0.7
		C46.7,21.6,47.2,23.1,47.4,22.2z"/>
	<path fill="#ED331A" d="M5.6,19.6c0.5-0.1,0.9-0.3,1.2-0.7c-0.1-0.1-0.1-0.3-0.2-0.6c0,0,0,0,0-0.3c-0.2,0.5-1,0.1-1.1,1.1
		c-0.2-0.5-0.5-0.4-0.6,0.3c-0.1-0.4-0.1-0.8-0.2-0.7c0,0.9-0.3,0.1-0.3,0.9c-0.1-0.1-0.3,0-0.1,0.3C4.7,19.8,5.2,19.7,5.6,19.6z"/>
	<path fill="#ED331A" d="M3.9,19.2c-0.1,0.4-0.4,0.2-0.4,0.9C3.7,20,4.1,20.7,3.9,19.2z"/>
	<path fill="#ED331A" d="M10.7,20.4c-0.1,0.3-0.7-0.7-0.4,0.6C10.4,20.7,10.7,21.3,10.7,20.4z"/>
	<path fill="#ED331A" d="M14.3,23.4c-0.3,0-0.5,0.1-0.5,0.6C14,24,14.3,24.2,14.3,23.4z"/>
	<path fill="#ED331A" d="M9.6,28c0.4,1.4,0.5,0.8,0.6,0.3C9.9,27.8,9.7,28,9.6,28z"/>
	<path fill="#ED331A" d="M11.6,31.5c0,0.5-0.6,0.1-0.3,0.6C11.4,31.9,11.9,32.8,11.6,31.5z"/>
	<path fill="#ED331A" d="M12.9,38.3c0.2,0.2,0.4,0.2,0.6,0.1c0.2-0.1,0.3-0.4,0.4-0.7c-0.2,0-0.4,0.1-0.6,0.2
		C13.2,38,13,38.1,12.9,38.3z"/>
	<path fill="#ED331A" d="M20,39.1c0.2-0.2,0.5-0.1,0.5-0.6C20.3,38,20,38.5,20,39.1z"/>
	<path fill="#ED331A" d="M12.5,38.2c-0.3-0.2-0.8,0-0.5,0.6C11.8,38.5,13,38.7,12.5,38.2z"/>
	<path fill="#ED331A" d="M30.5,40.7c0.2,0.5,0.4,0.1,0.4-0.9C30.7,40.4,30.5,39.7,30.5,40.7z"/>
	<path fill="#ED331A" d="M12.9,39.5c0.3-0.1,0.6-0.1,0.8-0.1c0.3,0,0.5-0.1,0.5-0.5c-0.2,0-0.6-0.1-0.9,0
		C13.2,39,12.9,39.1,12.9,39.5z"/>
	<path fill="#ED331A" d="M18.9,39c-0.1,0.5-0.5,0-0.5,0.6C18.6,39.9,18.9,39.9,18.9,39z"/>
	<path fill="#ED331A" d="M17.1,40.3c-0.5-1.4-1.1-0.6-1,0.3C16.5,40.5,16.8,39.8,17.1,40.3z"/>
	<path fill="#ED331A" d="M6.3,39.8c-0.4-0.3-0.5,0-0.5,0C5,40.1,6.8,40.2,6.3,39.8z"/>
	<path fill="#ED331A" d="M11,41.4c-0.1,0.4-1-0.2-0.9,0.6C10.3,41.7,11.3,42.7,11,41.4z"/>
	<path fill="#ED331A" d="M13.1,42.4c0.4,0.3,0.6-0.1,1,0.3C13.8,41.5,13.2,42,13.1,42.4z"/>
	<path fill="#ED331A" d="M1,42.8c-0.5-0.6-0.6-0.7-1-1.1C0.4,42.9,0.8,43.9,1,42.8z"/>
	<path fill="#ED331A" d="M6.5,43.4c0.3-0.1,0.7,0.1,1.1,0.1c0.4,0.1,0.7,0,0.7-0.7c-0.5,0.3-0.8,0.2-1.3,0.2
		C6.7,42.9,5.9,43.1,6.5,43.4z"/>
	<path fill="#ED331A" d="M8.4,43.5l0.4,0C8.6,42.2,8.3,43,8.4,43.5z"/>
	<path fill="#ED331A" d="M11.9,43.3c0.3,1.6-0.4,0.7-0.4,1.6c0.8,0.4,1.5-0.6,1.9-1.5C12.7,43,12.5,44,11.9,43.3z"/>
	<path fill="#ED331A" d="M14.4,46.3c0.3,0,0.5,0.1,0.5-0.6C14.6,45.6,14.4,45.6,14.4,46.3z"/>
	<path fill="#ED331A" d="M0.6,45.3c0.1,0.1,0.6,1.1,0.5-0.2C0.9,45.2,0.6,44.6,0.6,45.3z"/>
	<path fill="#ED331A" d="M4.2,46.7c-0.1,0-0.3,0-0.3,0.3c0.1-0.1,0.3,0,0.4,0.1c0.1,0,0.2,0,0.3-0.3C4.5,46.8,4.3,46.7,4.2,46.7z"/>
	<path fill="#ED331A" d="M50,13.6c0-0.1,0-0.2,0-0.3C49.9,13.9,50.1,14,50,13.6z"/>
	<path fill="#ED331A" d="M15.6,32.5c0-0.1,0-0.2,0-0.2C15.7,32.4,15.7,32.4,15.6,32.5c0.2,0,0.4,0,0.5,0c0-0.3,0.1-0.6,0.3-0.2
		c0,0.1-0.1,0-0.1,0.2c0.2,0,0.3,0,0.5,0c0.7-0.3,0.9-1.2,2-0.5c-0.2-0.7-0.3-1.2-0.2-1.3c0.1,0.5,0.2,1.1,0.4,1.6
		c0.1,0,0.2,0,0.3-0.1c-0.1-0.1-0.2-0.2-0.4-0.6c0-0.6,0.5-0.2,0.7-0.3c0,0.4,0,0.7-0.2,0.8c1.8-0.4,3.4-1.1,4.9-2.3
		c-1.3,0-2.5-0.4-3.5-1.2c-1-0.8-1.7-1.8-2.1-3c0.4,0.1,0.8,0.1,1.1,0.1c0.5,0,1.1-0.1,1.6-0.2c-1.4-0.3-2.4-1-3.3-2.1
		c-0.9-1.1-1.2-2.4-1.2-3.8v-0.1c1,0.5,1.6,0.7,2.6,0.8c-0.8-0.5-1.6-1.3-2-2.2c-0.4-0.8-0.7-1.6-0.7-2.6c-0.2,0.2-0.6,0-0.3,1.4
		c-0.2-0.1-0.8-0.4-0.7,1.3c-0.5-0.8-0.8-0.5-1.2-0.3c-0.3,0.3-0.7,0.6-1.1-0.1c0.2,1.2,0.3,0.6,0.5,1.3c0,1.1-0.5-0.7-0.6-0.3
		c-0.1,0.3,0.2,0.3,0.3,1.3c-1.7,1.3-4.2,2.1-6.4,2.8c-0.2,0.3,0.2,0.3,0.3,0.3c0.9,0.3,1.7-0.2,2.5-0.7c0.4-0.3,0.8-0.5,1.2-0.6
		c0.4-0.1,0.8-0.2,1.2,0c0,1.9-1.5,0.1-1.7,1.8c0.4-0.3,0.8-0.5,1.3-0.6c0.5-0.1,0.9-0.3,1.3-0.6c0.3-0.3,0.7,0,0.8-0.3
		c0.1,0.1,0.1,0.4,0.1,0.6c0.4,0,0.8-0.5,1.2-0.7c0.4-0.2,0.8-0.2,1.2,0.7c-0.4-0.2-0.5,2.5-1.2,1.2c0.1,0.5,0.1,0.8,0.1,1
		c-0.1-0.4-0.1-0.7-0.2-1c-0.1,0.2-0.4-0.4-0.3,0.3c0.1,0.1,0.2-0.3,0.4,0.6c-0.2,0.3-0.6-1.1-0.8-0.7c0.2,0.6,0.1,2-0.2,0.6
		c-0.2-0.9,0.3,0.2,0.1-0.6l-0.5,0c0.3,1.7,0.1-0.7,0.4,1c-0.2,0.5-0.4-0.8-0.7-1.3c-0.2,1.3-1.3,0.8-1.7,2.2c0.1,0.1,0.1,0,0.2,0.3
		c-0.4,0.6-1.9-0.3-1.9,1.5c1.1,0.2,2.2-1.2,3.4-0.2c-0.2,0.6-0.7,0.7-1.2,0.7c-0.5,0.1-1,0.1-1.2,0.8c1.5-0.2,3.1-1,4.2-1.5
		c0.2-0.1,0.8,0.4,0.8,0.3c0.1,0,0.2-1.4,0.3,0c0.2,0.1,0.3-0.3,0.6,0.6c-0.4,0.9-1.3-0.5-1.9,0c0.2,0.8,0.3,1.3,0.2,1.6
		c-0.3-1.3-0.3,0.2-0.6-0.3c-0.2-1-0.3-0.9-0.4-0.6C15,30,15,30.2,14.9,30.4s0,0.3,0,0.3c-0.1,0-0.2-0.1-0.4-0.3
		c0.1,0.1,0.2,0.6,0.2,0.9c0,0.4-0.3-0.2-0.1,0.9c-0.3-1-0.2,0.2-0.6-1.3c0.2,0,0.5,0.1,0.4-0.6c-0.3-0.3-0.6-0.7-0.6,0.3
		c0.1,0.6,0.4,1.1,0.3,1.3c-0.3,0.3-0.8-1.1-1.1,0c0.5,0.6,0.4-0.3,0.8,1.3c0-0.6,0.2-0.9,0.3,0.3c-0.1-2.1,1,0,1.3-0.6
		c-0.1,0-0.2-0.1-0.2-0.6c0.2,0.1,0.3,1.1,0.5,1C15.7,33,15.7,32.8,15.6,32.5c0,0-0.1,0-0.1,0C15.5,32.5,15.6,32.5,15.6,32.5z
		 M13.3,26.5c-0.2-1.2,0.4-0.4,0.6-0.6C13.9,26.6,13.6,26.6,13.3,26.5z M16.2,27.3c-0.1-1.2,0.4-0.9,0.7-0.6
		C16.8,27.5,16.6,27,16.2,27.3z M17.3,28.2c-0.1-0.8,0.4-0.3,0.6,0C18.2,30,17.6,28.3,17.3,28.2z"/>
	<path fill="#ED331A" d="M50,13.2C50,13.3,50,13.3,50,13.2C50,13.3,50,13.3,50,13.2C50,13.3,50,13.2,50,13.2z"/>
	<path fill="#ED331A" d="M48.6,9.6c-0.1,0.4-0.1,0.9-0.2,0.9c0.1-1,0.2-1.2,0.4-1.6c-0.4-0.4-0.6,0.7-0.9,0c-0.1,0.8,0,1-0.2,1.3
		c0-0.6-0.3-0.1-0.2-0.8c0.3-0.3,0.2,0.5,0.4-0.5c0-0.9-0.7-0.5-0.9-2.3c0.7,0.1,0.9,2.2,1.6,0.9c-0.6-1-1.3-1.6-1.9-2.2
		c-0.7-0.6-1.4-1.1-2.2-1.8C44,4.8,43.5,4.7,43,4.4c-0.5-0.2-1-0.4-1.5-0.6c-0.5-0.2-1.1-0.4-1.7-0.5C39.2,3.2,38.6,3.1,38,3
		c-0.6-0.1-1.2-0.1-1.8-0.1C33.7,3,31.2,3.8,29.4,6c0.1,0,0.2,0,0.3,0.7c-0.3-0.1-0.8,0.3-1.1,0.5c-0.4,0.2-0.7,0.3-0.8-0.4
		c-0.3-0.5,0.1,1.1-0.1,1l-0.1-1c-0.7,0-1.4,0.2-2,0.6c-0.6,0.4-1.2,0.9-1.6,1.7c0.1,0.1,0.2,0.5,0.2,0.6c-0.5,0.5-1.1,0.9-1.6,1.2
		c-0.5,0.3-1.1,0.6-1.6,0.9c-0.5,0.3-1,0.6-1.5,0.9c-0.3,0.2-0.6,0.4-0.8,0.7c1.3,1.3,2.8,2.5,4.5,3.3c2.2,1.1,4.5,1.7,7,1.9
		c-0.1-0.5-0.2-0.9-0.2-1.4c0-1.7,0.6-3.1,1.8-4.3c1.2-1.2,2.6-1.8,4.3-1.8c1.7,0,3.2,0.6,4.4,1.9c1.4-0.3,2.6-0.7,3.8-1.5
		c-0.5,1.4-1.3,2.5-2.7,3.3c1.2-0.1,2.3-0.4,3.5-0.9c-0.5,0.8-1.1,1.5-1.8,2.1c1.4,0.4,1.8,0.9,2.9,1.4c0-1-0.3-1.2-0.5-1.3
		c-0.3-0.2-0.5-0.3-0.7-1.2c0.2,0.4,0.8,0.2,0.9,0c-0.4-0.3-0.8-1-1-2c0.3,0.6,0.7,0.2,1.1-0.2c0.4-0.4,0.7-0.8,0.8-0.2
		c0.1-0.4,0.1-0.9,0.2-0.9c0,0.3-0.1,0.6-0.1,1c0.4,0.3,0.7,0.7,1,1.1c0.3,0.4,0.5,0.8,0.8,1.3c0.2-1.6,0.1-1.4,0-1.3
		c-0.1,0.1-0.3,0.2-0.2-1.5c0.3,1.2,0.6,0.8,1,2.1c0.3-1.6-0.3-1,0-2.4c0.4-0.2,0.3,1,0.7,1.3c-0.1-1.7-0.7-2-0.9-3.4
		C48.8,10.2,48.6,10.7,48.6,9.6z M47.3,12.9c-0.2-0.2-0.1-1.3-0.3-1.5c0.2-1,0.4,0.5,0.5-0.2C47.6,11.4,47.3,12.1,47.3,12.9z
		 M48.6,11.3c0.2-1.3,0.3-0.3,0.4-0.9c0,0.8,0.1,0.3,0.1,0.7C48.8,12.4,48.9,10.7,48.6,11.3z"/>
	<path fill="#ED331A" d="M16.1,32.8c-0.1-0.1-0.2-0.1-0.3-0.2C16,33,16.1,33,16.1,32.8z"/>
	<path fill="#ED331A" d="M14.5,30.4C14.5,30.4,14.5,30.4,14.5,30.4C14.5,30.4,14.5,30.4,14.5,30.4C14.5,30.4,14.5,30.4,14.5,30.4z"
		/>
	<path fill="#ED331A" d="M42,18c0,1.6-0.2,3.2-0.7,4.9c-0.5,1.6-1.2,3.2-2.2,4.7c-1,1.5-2.1,2.8-3.5,3.9c-1.3,1.1-2.9,2.1-4.8,2.7
		c-1.9,0.7-3.9,1-6,1c-1.7,0-3.4-0.2-5-0.7c-0.1,0.2-0.3,0.4-0.4,0.5c-0.3,0.2-0.5,0.2-1,0.3c0.1-0.8,0.3-1,0.6-1
		c-0.5-0.2-1-0.4-1.5-0.6c0,0.2-0.1,0.4-0.1,0.7c0.4,1,0.5-1.2,1,1.3c-0.4-0.7-0.7-0.1-0.8,0.3c-0.1,1-0.4,0.9-0.8,0.6
		c-0.4-0.3-0.8-0.8-1.3-0.7c0.3-0.7,1.3-0.1,1.4-1.6c0.2,1.2,0.3,0.3,0.5,1c-0.4-1.3-0.2-1.1-0.2-1.8c0,0,0,0-0.1,0
		c-1,1.5-2.8,0.3-3.3,2.4c0.9,0.4,1.1-0.6,1.8,0.4c-0.1,0.1,0.1,0.7,0.2,1c-0.9-1.5-0.6,1.5-1.2,2.2c1.3,0.4,2.3-0.3,3.3-0.8
		c0.5-0.3,1-0.6,1.5-0.6c0.3,0,0.6,0,0.9,0c0.3,0.1,0.6,0.2,1,0.4c0.7,1.7,1-1.1,1.9,0.7c-1.3-0.2-2.3,2.6-4.4,2
		c0.4,2.3-0.6,0.5-1,0.9c0-0.5-0.1-0.8-0.3-1c0.1,0.4,0.2,0.8,0.3,1.3c0.4,0.3,1,0.7,1.5,0.9c0.3,0.1,0.5,0.1,0.8,0.1
		c0.3,0,0.5-0.1,0.7-0.3c-0.2-1.1-0.2-0.2-0.4-1c0.3,0.1,0.3-1.5,0.8,0.3c-0.1-0.7-0.2-1.2,0.1-0.9c0.3,1,0,0.7,0.1,1.3
		c0.1,0,0.3-0.1,0.4-0.1c0.1-0.1,0.3-0.1,0.4-0.2c0.3-0.1,0.5-0.3,0.8-0.4s0.5-0.3,0.7-0.5c0.2-0.2,0.5-0.3,0.7-0.5
		c0.5-0.3,1-0.6,1.5-0.7c0.3-0.1,0.5-0.1,0.8-0.1c0.3,0,0.5,0.1,0.8,0.2c0.1-1,0.5-1,1-0.9c0.5,0,0.9,0.2,1.2-0.6
		c0.5,1.8,0.6,0.5,0.9-0.2c0.1-0.3,0.3-0.5,0.5-0.7c0.2-0.2,0.4-0.3,0.6-0.4c0.2-0.1,0.4-0.2,0.6-0.3c0.2-0.1,0.4-0.2,0.5-0.4
		c0.1,0.3,0.1,0.9,0.2,1c0.1-0.4,0.3-0.7,0.5-0.8c0.2-0.2,0.4-0.2,0.6,0.2c0,0.5-0.1,0.1-0.1,0.6c0.3-0.8,0.6-1.4,1-1.6
		c0.4-0.2,0.9,0,1.3,0.6c0-0.4,0-0.9,0-1c0,0.6,0,0.8,0.1,1c0.4-0.4,0.8-0.7,1.3-1c0.5-0.3,0.9-0.6,1.4-0.8c0.5-0.2,1-0.4,1.5-0.5
		c0.3-0.1,0.5-0.1,0.8-0.1c0.3,0,0.5,0,0.8,0c0.5,0,1,0.6,1.2,0.8c0.2,0.2,0.6-0.5,0.8-0.3c0.3,0.2,0.5,0.8,0.9,0.4
		c-0.1,0.6-0.2,0.8-0.1,1c0.2-1.2,0.8-1.9,0.9-0.9c-0.3,0.6-0.5-0.2-0.7,0.7c0.4,0.2,0.8-0.3,1.2-0.5c0.3-1.1,0.4-2.6,0.8-4.5
		c0-1.2-0.4-0.2-0.5-0.6c0.3-0.8,0.5-0.9,0.8-1.7c-0.1-0.1,0.2-1.4,0.3-2c-0.3-0.3-0.6-1-0.8-1.6c-0.1-0.3-0.3-0.5-0.4-0.7
		c-0.2-0.1-0.4-0.1-0.6,0.1c0,0.1,0.1,0,0.1,0.4c-0.2-0.5-0.4,0.6-0.6,1.1c0.1-0.7,0.3-1.3,0.2-1.6c-0.3,0.2-0.7-0.1-1.1-0.4
		c-0.4-0.3-0.8-0.5-1.3-0.1c0-0.7-0.3-0.5-0.5-0.5c-0.2,0-0.3-0.2-0.2-1.7c0.1,1,0.2-0.6,0.5-0.9c0.3-0.3,0.6,0.1,0.9,0.3
		c0.3,0.2,0.7,0.3,1-0.6c-0.6-0.3-0.8-0.3-1.2-0.8c0.1-0.5,0.1-0.5,0.2-0.9c-0.2,0-0.4-0.1-0.5-0.8c0.4-0.3,0.8,0,0.7,1.3
		c0.2-1,0.5-1.1,0.7-1c0.3,0.1,0.5,0.3,0.7-0.2c-0.3-0.4-0.7-0.5-1-0.7c-0.4-0.2-0.7-0.4-1-1c-0.4,0.4-0.8,0.7-1.2,1
		C42,17.4,42,17.6,42,18z M16.8,37.7c-0.4-1.2,0.4-0.4,0.5-0.6C17.7,38.6,16.7,37.1,16.8,37.7z M17.9,36.5c0.1-0.1,0.3,0.3,0.4,0.3
		C18.3,38.2,17.2,37,17.9,36.5z M43.2,31.7c0.2,0.5,0.4,1.2,0.8,0.7c-0.3,1.5-0.9,1.7-0.9,0c-0.3,1.4-0.1-0.6-0.5-0.2
		C42.8,30.9,43,31.2,43.2,31.7z M42.6,33.1c-0.7,0.4-2.3,0.8-2.8,0.6C40.6,32.2,41.9,32.2,42.6,33.1z"/>
	<path fill="#ED331A" d="M17.2,13c-0.2-0.1-0.5,0-0.6,0.2c-0.4,0.3-0.7,0.9-1.1,0.4c0,0.3,0.1,1.1,0.1,1.3c-0.2-0.8-0.2-0.8-0.4-1
		c-0.3-0.3-0.6,0-1,0.4c-0.4,0.4-0.8,0.9-1.3,1.1c-0.3,0.2-0.6,0.3-0.9,0.4c-0.2,0.1-0.3,0.1-0.5,0.2c-0.1,0.1-0.3,0.1-0.4,0.2
		c-0.3,0.1-0.6,0.2-0.9,0.3c-0.3,0.1-0.6,0.2-0.9,0.3c-0.1,0.3,0.2,1.4,0,1.3c-0.4-1.1-0.6-1-1-0.8c-0.3,0.2-0.6,0.7-1,0.4
		c0.4,1.3-0.1,0.8,0.2,1.6c0.5-0.1,0.8-0.4,1.1-0.6c0.3-0.2,0.7-0.3,1.3,0.1c0.1,0.7-0.6-0.1-0.3,0.6c0.7,0.9,0.1-1.6,0.6-0.9
		c0.2,0.9-0.3-0.3-0.1,0.6c1.1-0.2,2.2-0.1,3.1-1.5c0,0.1-0.2-0.2-0.2-0.3c0-0.9,1.1-0.9,1.8-1.2c0.4-0.2,0.8-0.4,1.2-0.6
		c0.3-0.1,0.6-0.2,0.9,0c0,0,0-0.1,0-0.1C16.7,14.6,16.9,13.8,17.2,13z M10.3,18.8c-0.2-1.7,0.8-0.8,1-0.9
		C11.2,18.9,10.6,18.5,10.3,18.8z M11.2,17.6c0-0.1,0.1,0.1,0.1,0.3C11.9,17.5,11.8,19.3,11.2,17.6z M11.9,18c0-1,0.5-0.7,0.8-0.6
		C12.6,18,12.2,18.4,11.9,18z"/>
	<path fill="#ED331A" d="M49.6,13.8c-0.1,0.2-0.1,0.6-0.2,0.6c0.1-0.6,0.1-1.1,0.1-1.3c-0.1,0.8-0.1,1.2-0.3,2.3
		c0.1,0,0.6-0.8,0.5-1.5C49.7,14.4,49.6,14,49.6,13.8z"/>
	<path fill="#ED331A" d="M47,23.7c-0.1,0-0.5-0.5-0.4,0.2l0.6,0.3c0,0.8,0.3-0.5,0.1,0.7c0,0-0.1,0.2-0.1,0.3
		c0.1-0.4,0.2-0.7,0.3-0.9c-0.3,2.1,0.3-0.2,0.3,0.8C48,23.2,47.3,24.2,47,23.7z"/>
	<path fill="#ED331A" d="M13.3,19.3c-0.2,0.3-0.5,0.4-0.8,0.3C12.2,19.9,13.4,20.3,13.3,19.3z"/>
	<path fill="#ED331A" d="M12.8,32.2c0.3,0.5,0.3-0.1,0.7,1C13.3,32.2,12.8,31.4,12.8,32.2z"/>
	<path fill="#ED331A" d="M17.3,41.8c-0.2-0.7,0.4,0,0.1-0.6c-0.9-0.4-0.9,1.6-1.6,0.6c0.1,0.6,0.2,0.6,0.3,1
		c-0.7,0.2-1.8,0.1-2.3,0.9c0.2-0.2,0.5,1.3,0.7,1.3c0.1-0.3,0.1-0.7,0-1.3c0.5-0.1,0.9-0.7,1.7,0.3c0-1,0.3-1.2,0.6-1.3
		c0.3-0.1,0.7,0.1,1-0.3C17.4,40.8,17.6,42.9,17.3,41.8z"/>
	<path fill="#ED331A" d="M9.9,44.1c-0.5,0.3-1,0.7-1.6,0.6c-0.6-0.1-1.2-0.3-1.8-0.3c-0.5,0-1,0.1-1.4,0.7C5,44.9,5,44,4.8,44.2
		c-0.1,0-0.3-0.1-0.5-0.2c-0.2-0.1-0.4-0.2-0.7-0.3c-0.5-0.2-1-0.2-1.2,0.2c0.4,0.5,0.7,0.7,1.1,0.9c0.2,0.1,0.4,0.2,0.6,0.2
		c0.2,0.1,0.3,0.1,0.5,0.1c0.7,0.2,1.4,0.3,2.2,1c0-0.7-0.3-1-0.1-1c0.4,1.5,0.1,0.4,0.2,0C6.9,45.1,7.2,45,7.4,45
		c0.4,0,0.7,0.1,1.1,0.2c0.4,0.1,0.8,0.2,1.1,0.2c0.7,0.1,1.4-0.1,1.8-0.8C10.8,43.8,10.3,43.8,9.9,44.1z"/>
	<path fill="#ED331A" d="M15.6,32.5C15.6,32.5,15.6,32.5,15.6,32.5c0.1,0.1,0.1,0.1,0.2,0.2C15.8,32.6,15.7,32.6,15.6,32.5
		C15.7,32.5,15.7,32.5,15.6,32.5z"/>
	<path fill="#ED331A" d="M19.6,32.3c-0.1,0-0.1,0-0.2,0C19.4,32.4,19.5,32.3,19.6,32.3z"/>
</g>
</svg>
