<?xml version="1.0" encoding="utf-8"?>
<!-- Generator: Adobe Illustrator 18.0.0, SVG Export Plug-In . SVG Version: 6.00 Build 0)  -->
<!DOCTYPE svg PUBLIC "-//W3C//DTD SVG 1.1//EN" "http://www.w3.org/Graphics/SVG/1.1/DTD/svg11.dtd">
<svg version="1.1" id="Layer_1" xmlns="http://www.w3.org/2000/svg" xmlns:xlink="http://www.w3.org/1999/xlink" x="0px" y="0px"
	 viewBox="0 0 50 50" enable-background="new 0 0 50 50" xml:space="preserve">
<g>
	<path fill="#ED331A" d="M43.8,2.9c-0.1-1.1-0.8-0.9-0.5-0.5C43.5,2.3,43.6,2.9,43.8,2.9z"/>
	<path fill="#ED331A" d="M18.5,7.4c0.1-0.2,0.4,0.4,0.5,0.2c-0.3-0.6-0.5-1-0.7-1C19,7.6,18.1,6.7,18.5,7.4z"/>
	<path fill="#ED331A" d="M21.3,8.5c-0.4-0.6-0.4-1.1-0.7-1.3c0.1,0.3,0.1,0.3,0,0.3C20.9,8.1,21,8.1,21.3,8.5z"/>
	<path fill="#ED331A" d="M20.3,8.1c-0.3,0.2,0.9,0.7,0.2-0.3C20.4,8,20.4,7.8,20.3,8.1z"/>
	<path fill="#ED331A" d="M19.4,8.9L19.1,9C19.5,9.8,19.9,9.7,19.4,8.9z"/>
	<path fill="#ED331A" d="M20.5,11c-0.1,0.2-1.1-0.6-0.5,0.7C20.1,11.1,20.8,11.9,20.5,11z"/>
	<path fill="#ED331A" d="M12.7,18.7c-0.2,0.1-1-0.3-0.5,0.8C11.9,18.8,12.9,19.5,12.7,18.7z"/>
	<path fill="#ED331A" d="M13.9,18.9c-0.1,0-0.3-0.1,0.1,0.6C14.1,19.5,14.3,19.6,13.9,18.9z"/>
	<path fill="#ED331A" d="M11.1,21.1c-0.5-0.8-0.7-0.5-0.5-0.2C10.7,20.8,11.1,21.3,11.1,21.1z"/>
	<path fill="#ED331A" d="M7.8,21.9c-0.4-0.1-0.1,1-0.9,0.3C8,23.6,7.9,22.5,7.8,21.9z"/>
	<path fill="#ED331A" d="M8.3,24.4c0.2-0.2,0.3-0.3,0.5-0.5c0.1-0.2,0.3-0.4,0.4-0.6c0.1-0.2,0.2-0.4,0.3-0.7
		c-0.2,0-0.4,0.1-0.6,0.2c-0.2,0.1-0.3,0.3-0.5,0.5C8.2,23.5,8.1,23.8,8,24c-0.1,0.3-0.1,0.6-0.2,0.9C8,24.7,8.1,24.5,8.3,24.4z"/>
	<path fill="#ED331A" d="M5,27.3c-0.1,0.2-0.2,0.2-0.1,0.6C5,27.8,5.3,28,5,27.3z"/>
	<path fill="#ED331A" d="M2.2,30.9c-0.1,0.1-0.4-0.2-0.1,0.6C2.3,31.5,2.3,31.3,2.2,30.9z"/>
	<path fill="#ED331A" d="M4.3,37c0,0,0.1-0.1-0.2-0.5C4,36.4,4,36.5,4.3,37c0,0.1,0.1,0.3,0.1,0.5c0-0.2,0.4,0.3,0.1-0.3
		C4.5,37.2,4.5,37.3,4.3,37z"/>
	<path fill="#ED331A" d="M3.9,36.8c-0.2,0.2-0.4,0-0.3,0.6c0.3,0.1,0.2,0,0.5,0.2C3.5,36.6,4.3,37.4,3.9,36.8z"/>
	<path fill="#ED331A" d="M5.9,36.9c0.3,0.2,0.6,0.1,0.4-0.4C6.1,36.5,5.8,36.4,5.9,36.9z"/>
	<path fill="#ED331A" d="M7.3,42.6c0.1-0.2,0.7,0.2,0.5-0.4C7.7,42.4,7.2,42,7.3,42.6z"/>
	<path fill="#ED331A" d="M8.7,42.3c-0.2,0.1-0.5,0.2-0.8-0.1c0.4,0.6,0.6,0.6,0.7,0.5c0.2-0.1,0.3-0.3,0.5-0.2
		C9.1,42.2,8.9,42.3,8.7,42.3z"/>
	<path fill="#ED331A" d="M12.7,43.1c-0.1,0.6-0.9,0.2-1,0.8C12,43.6,13,44.2,12.7,43.1z"/>
	<path fill="#ED331A" d="M38.3,15c0.6,0,1.1,0.4,1.6,0.8c0.1,0.1,0.2,0.3,0.3,0.5l0.2,0.4c0.1,0.3,0.2,0.5,0.2,0.8
		c0,0.7-0.2,1.4-0.7,2.1c-0.5,0.7-1,1.2-1.7,1.7c-3.5,2.4-5.7,4-6.5,4.5c-0.1,0.1-0.3,0.2-0.6,0.4c-0.3,0.2-0.6,0.4-0.8,0.5
		c-0.2,0.1-0.4,0.3-0.7,0.5c-0.3,0.2-0.6,0.4-0.8,0.5C28.5,27.9,28.2,28,28,28h0h0c-0.2,0-0.4-0.1-0.7-0.2c-0.3-0.1-0.5-0.2-0.8-0.4
		c-0.3-0.2-0.5-0.3-0.7-0.5c-0.2-0.1-0.5-0.3-0.8-0.5c-0.3-0.2-0.5-0.4-0.6-0.4c-0.8-0.6-2.1-1.4-3.7-2.6c-1.6-1.1-2.5-1.8-2.9-2
		c-0.6-0.4-1.1-0.9-1.6-1.6c-0.5-0.7-0.8-1.3-0.8-1.9c0,0,0-0.1,0-0.1c-0.2,0.3-0.4,0.5-0.6,0.9c0.1,0.4,0.4,1,0.5,1.4
		c-0.6-0.2-0.6,0.4-1.3,0.4c-0.9-1.1-1.2-0.8-1.3-0.5c-0.1,0.3-0.3,0.7-0.4,1c-0.1,0.4-0.2,0.7-0.4,1.1c-0.2,0.3-0.3,0.6-0.6,0.8
		c-0.2,0.2-0.6,0.3-1,0.3c0.8,1.4,0.2,1.2-0.4,0.4c-0.4,0.3-0.6,0.7-0.8,1.2c-0.2,0.5-0.4,1.1-0.5,1.7c-0.4,1.1-0.8,2.1-1.8,2
		c0-0.5,0.3-0.7,0.5-0.8c0.2-0.2,0.4-0.4,0.4-0.9c-0.5-0.6-0.5,0-0.7,0.2c-0.1,0.3-0.4,0.3-1.3-1.1c0.2,0.2,0-0.5-0.2-0.5
		c0.3,0.6-0.1,0.3,0.1,0.9c0.1,0,0.2,0.1,0.5,0.5c-0.2,0.3-0.2,1-0.3,1.5c-0.1,0.5-0.2,1-0.7,0.8c-0.4-1,0.1-0.8-0.7-1.9
		c0.4,1-0.3,0.1,0.5,1.9c-0.2-0.2-0.3,0.4,0,1.2c-0.2-0.1-0.2,0.5-0.6-0.4c-0.4,0.2-0.3,1.1-0.6,1.6c-0.2-0.4-0.5-0.9-0.5-0.8
		c0.3,0.7,0.2,0.9,0.1,1c-0.1,0.1-0.4,0-0.4,0.3c-0.2-0.4,0-0.2-0.1-0.5c-0.3-0.2,0,0.3,0.2,0.8c-0.5-1.1-0.6-0.8-0.2,0.1
		c0.1,0.1-0.2-0.8,0.3,0.2c-0.2,0.4-0.5,0.6-0.8,0.9c-0.3,0.3-0.6,0.6-0.9,1.1C2,34.6,2.4,33.4,3,34.7c0.1-0.1,0.1-0.6,0.2-0.9
		c0.1-0.3,0.3-0.5,0.8-0.2C4,34,3.5,33.4,4,34.5c0.2-0.1,0.3-0.3,0.5-0.4C4.6,34,4.8,34,5,34.2C5,35,4.2,35,3.9,35.4
		c0.7,0.2,1.4,0.1,1.6-0.4c0.9,1.9,0.5-0.1,1.4,2c0.4,0.4-0.6-1.1-0.4-1.1c0.2,0.4,0.5,1,0.6,1c-0.2-0.4-0.5-0.9-0.7-1.3
		c0.5,0.8,0.5,0.3,0.4-0.1c1.2,2.2,0.9,1.7,0.2,0.2C7.5,36,7.4,35,8,35.5c0.5,0.9-0.2,0,0.6,1.3C8.5,36.4,8.3,36.1,9,37
		c-0.5-1.4,0.3-0.7,0.6-0.4c0-0.3,0.3-0.7,0.6-1c0.3-0.3,0.8-0.4,1.3-0.1c0,0.1-0.1,0,0.1,0.3c0.5-0.3,0.7-1.3,1-2
		c0.3-0.7,0.7-1.3,1.7-0.9c-0.3-0.5-0.3-0.8-0.4-1.1c1,1.6,0.4-0.4,0.9,0.3c0.3,1-0.1,1.2-0.4,1.5c-0.3,0.2-0.6,0.5-0.1,1.7
		c0.3-0.6,0.5-1.4,1.1-1.7C15.3,33.3,15,33,15,32.8v-1.6c0,0.1-0.2,0.4-0.6,0.2c-0.1-0.3-0.4-1.5,0.6-0.2v-9.5
		c1,0.5,1.1,0.9,1.7,1.2c0.2,0.1,0.5,0.2,0.7,0.4c0,0,0.1-0.1,0.2-0.1c0.3-0.2,0.6-0.3,0.9-0.6c0,0.6-0.1,0.9-0.3,1.1
		c2.8,1.9,4.7,3.2,5.8,4c0.5,0.4,1,0.7,1.3,0.9c0.3,0.2,0.8,0.6,1.3,0.9S27.5,30,28,30h0h0c0.5,0,1-0.3,1.5-0.5s1-0.5,1.3-0.8
		c0.3-0.2,0.8-0.6,1.3-1c1.6-1.1,4.1-2.8,7.2-4.8c0.5-0.4,0.6-0.8,1.6-1.2V32c0-0.1,0-0.2,0.1-0.4c0.2-0.2,0.2-0.3,0.4-0.5
		c0.6-0.7,1.2-1.3,1.8-2.2c0.3-0.5,0.5-1.4,0.6-2.4c0.2-1,0.4-1.9,0.7-2.3c0.3-0.3,0.5-0.6,0.8-0.8c0.3-0.2,0.6-0.4,0.9-0.6
		c0.6-0.3,1.1-0.6,1.6-0.9c0.2-0.8,0.3-2.9,0.6-3c-0.1-1.3,0.1-1.7,0.2-2.4c-0.2-1-0.1-1.4-0.3-2.1c-0.2-0.4-0.5-0.5-0.4,0.5
		c-0.1-0.3-0.1-0.8-0.2-0.8c-0.1,1-0.2,1.2-0.5,1.9c-0.1-0.9-0.2-0.2-0.3-1.1c-0.2,0.4-0.7,0.9-1,1.1c0,0,0-0.1,0-0.2
		c-0.5-0.4-0.9-0.4-1.4-0.3c-0.4,0.1-0.8,0.2-1.3-0.1c0,0.4,0.2,0.7,0.1,0.8c-0.2-0.1-0.5-0.8-0.9-1c0.1,0.4,0.2,1,0.2,1.1
		c-0.4-1.6-0.2,0.5-0.7-0.5c0-0.3-0.1-0.7-0.3-1.3c0.1-0.4,0.4,0.1,0.2-1.1c-0.3-0.1-0.5-0.2-0.9-0.2c-0.2-1.2-0.4-1.1-0.6-0.9
		c-0.2,0.2-0.5,0.4-0.9-0.6c0.2-0.2,0.6-0.3,1-0.3c0.4-0.1,0.8-0.1,1-0.4c-0.5-0.6-1-0.5-1.4-0.4c-0.4,0.1-0.9,0.2-1.3-0.3
		c0.5-0.1,0.9-0.4,1.4-0.6c0.5-0.2,0.9-0.5,1.4-0.7c0.2-0.1,0.5-0.2,0.7-0.2c0.2-0.1,0.5-0.1,0.7-0.1c0.5,0,0.9,0.2,1.4,0.5
		c0.1,0.3,0,0.6,0.2,0.8c0-0.3-0.1-0.6,0-0.8c0.1,0.3,0.1,0.8,0.2,0.8c-0.2-1.3,0.3-0.2,0.3-1.1c0.1,0.5,0.3,1.1,0.4,1.3
		c0.9,0.1,1.2,1.9,1.9,0.5c-0.1-0.5-0.3-1.3-0.1-1.1c-0.3-1.3-0.6-1.4-0.9-2.4c-0.8-0.3-1.6-1.1-2.4-1.6c-0.8-0.6-1.6-0.9-2.2-0.4
		c0.8,0.6,1.2-0.3,1.9,1.3C43.2,6.1,42.6,6,42,5.9c-0.6-0.1-1.2-0.2-1.8-0.2c-0.3,0-0.6,0-0.9-0.1c-0.3,0-0.6,0-0.9-0.1
		c-0.6-0.1-1.2-0.2-1.8-0.3c-0.3,0.2-0.8,0.5-1.3,0.7c-0.5,0.1-1,0-1.4-0.7c0.5,0.3,1.2,0.4,1-0.9C34.9,4.7,35,5.2,35.1,5
		c0.2-0.3,0.6-0.4,1.1-0.5c0.5-0.1,1.1-0.1,1.7,0c0.3,0,0.6,0,0.9,0.1c0.3,0,0.6,0.1,0.9,0.1c0.6,0,1.1,0.1,1.5,0
		c-0.5-0.6-0.8-0.2-1.2-1C40.3,3.5,41.5,3.5,42,4c-0.2-0.9,0-0.4,0.1-0.3c-0.2-1.2-0.4,0.1-0.6-1.3c1,0.6,1.9,1.5,2.8,2.3
		c0.9,0.8,1.8,1.5,2.7,1.9c-0.1-0.6,0-0.8,0.1-1.3c-0.4,0.8-1-1.7-1.4-0.8c0.1,0,0.2,0.2,0.3,0.5c-0.6-0.4-1.2-0.7-1.9-1.2
		C43.4,3.4,42.7,3,42,2.5c-0.4-0.2-0.7-0.4-1.1-0.6c-0.4-0.2-0.8-0.4-1.1-0.6c-0.8-0.4-1.5-0.8-2.2-1.1c-0.6,0.4-1.3,0.4-2.1,0.3
		c-0.7-0.1-1.5-0.4-2-0.5c0.1,0.4,0.1,0.2,0,0.3c-0.1-0.4,0-0.2-0.2-0.3c-1,0.1-2.1,0.3-3,0.5c-0.5,0.1-1,0.2-1.5,0.3
		c-0.5,0.1-1,0.2-1.4,0.3c-1.9,0.5-3.6,1.1-5.2,2c0.8,0.8,0.9-0.7,1.5,0.3c-0.1,0.3-0.5,0.2-0.8,0.3C22.6,3.8,22.4,4,22.7,5
		c-0.2-0.1-0.5-1-0.6-1c0.5,1.3,0,0.6-0.3,0.3C22,4.8,22.2,5,22.2,5.1c-0.4-0.6-0.6-0.1-0.9,0.3c-0.2,0.4-0.5,0.7-1.2-0.2
		c0.6,1.3-0.2,0.1,0.4,1.4c0.4,0.6-0.1-0.8,0.6,0.4c-0.4-0.2-0.3,0.6,0.2,1.1c-0.6-1.5,0.5,0.3,0.2-0.9c0.3,0.2,1.4,1.6,1.1,0.6
		c0.3,0.6,0.3,0.8,0.6,1c-0.6-1-0.2-1.1-0.1-0.8c0.5,0.9-0.1,0.2,0.2,0.8c0.4,0.3,0.2-0.4-0.1-1.1c0.3,0.4,0.1,0,0.2,0
		c0.2,0.5,0.7,1.2,0.4,0.5c-0.1,0-0.2-0.2-0.3-0.5c0.2,0,0.6,0.8,0.2-0.3c0.1-0.2,0.8,1.4,0.5,0.5c-0.1,0-0.2-0.3-0.4-0.5
		c0.5,0.4,0.2-0.8,0.5-0.4c0.4,1.2-0.3,0.1,0.1,1.1c0.6,0.5,0.3-0.7,0.9,0.1c0.3,1.2-0.8,0.3-0.5,1.5c0.5,0,0.6-1.1,1.5,0
		c-0.8,0.4-1.2,1.3-2.1,0.4c-0.2-0.5,0.3,0,0-0.6c-0.4-0.2-0.7,0-0.9,0.5c0.5,0.3,0.3-0.4,0.9,0.4c-0.5,0.5-1,0.8-1.6,1.2
		c-0.3,0.2-0.6,0.3-0.9,0.5c-0.3,0.2-0.6,0.3-0.8,0.5c-0.5,0.3-1.1,0.7-1.5,1.1c-0.4,0.4-0.8,0.9-1,1.5 M17.9,14.5 M25.6,8.7
		c-0.8-1.7,0.8-0.1,0-1.7c0.7,1.2,0.1-0.4,0.9,1.2C25.9,8,25.9,8.8,25.6,8.7z M27.5,9.1c-0.2-0.9,0.6,0,0.6-0.7
		C28.6,9.8,27.8,8.9,27.5,9.1z M27.7,8c-0.5-0.6-0.1-0.7-0.2-1.1c0.7,1.2,0.1-0.8,1,1C28,7.5,27.6,7.7,27.7,8z M28.2,7.1l0.3,0
		C28.9,7.8,28.4,7.9,28.2,7.1z M29.8,7.1c-0.1-0.2-0.1-0.4-0.2-0.8c0-0.1,0.1,0.1,0.2,0.3c0.2,0.4,0.2,0,0.4-0.1
		C30.6,7.5,29.9,6.8,29.8,7.1z M30.7,6.1c0.3,0.5,0.4-0.3,0.8,0.7C31.1,6.4,31.3,7.6,30.7,6.1z M32.9,5.6c0.3,0.6,0.1-0.2,0.4-0.1
		C33.7,6.3,33.1,6.4,32.9,5.6z M6.3,33c-0.2,0.2-0.5,0.2-0.6,0.8c-0.4-1.6,0.2-1.8,0.8-2.2C6.7,32.6,6.5,32.8,6.3,33z M6.8,34.7
		c0.2-0.3,0.5-0.6,0.7-1c0.2-0.4,0.5-0.7,0.7-1c0.2-0.3,0.5-0.6,0.8-0.8c0.3-0.2,0.6-0.3,0.9-0.4c-0.2,0.3-0.4,0.6-0.6,0.9
		c-0.2,0.4-0.4,0.7-0.6,1.1c-0.2,0.3-0.5,0.7-0.8,0.9C7.6,34.6,7.2,34.7,6.8,34.7z M10.5,33.4c-0.4,0.6-0.5,1.7-1.1,1.5
		C9,34.8,8.9,35,8.7,35.3c-0.1,0.2-0.3,0.5-0.5,0.5C7.8,35,8,35.1,8.1,34.9c0.3-0.5,0.9-0.7,1.2-1.2c0.3-0.4,0.6-0.8,0.9-1.1
		c0.3-0.3,0.6-0.5,0.9-0.6C11.4,33,10.7,32.9,10.5,33.4z M11.5,32.2c-0.7-1,0.1-0.4,0.1-0.6C12.1,32.4,11.3,31.5,11.5,32.2z
		 M42,16.5c-0.1-0.5-0.1-0.7-0.1-0.8c-0.4-0.5-0.3,0.3-0.3,0.6c-0.1-0.1-0.2-0.7-0.3-1.1c0.2,1-0.3-0.3,0,0.8
		c0.1,0.5-0.1-0.2-0.2-0.5c-0.1,0,0,0.1,0,0.3c-0.3-0.5-0.2-1.1-0.2-1.3c0.4,1.2,0.4-1,0.7,0.5c0-0.6,0.2-0.3,0.4-0.6
		c0.2,0.8,0.1,0.8,0.3,1.6C42.1,16.4,42,15.9,42,16.5z"/>
	<path fill="#ED331A" d="M13.6,37c-0.2,0.3-0.5,0.5-0.7,0.8c-0.3,0.3-0.5,0.5-0.8,0.8c-0.6,0.5-1.1,1.1-1.7,1.6
		c-0.3-0.1-0.5,0.4,0,0.3c0.3,0,0.7-0.1,1-0.3c0.3-0.1,0.6-0.3,0.9-0.5c0.6-0.4,1.1-0.8,1.6-1.3c1-1,1.9-1.9,3-2.2
		c-0.2,1-1.5,0.5-0.9,2.4c-0.3-0.4-0.5-0.9-0.6-0.7c0.1,0.4,0.4,0.6,0.4,0.8c-0.7-1.1-0.3-0.1-0.7-0.7c0.2,0.4,0.6,0.9,0.6,1
		c-1-1.6-0.5-0.1-0.3,0.4c-0.7-1.3-1.1-0.5-0.4,0.4c0.3-0.1,0.6-0.3,0.9-0.6c0.3-0.3,0.6-0.6,0.9-0.8c0.2,0-0.4-0.7-0.4-0.8
		c1,1.7,0.1-0.7,1,0.6c-0.2,0.5-0.5,1-0.8,1.4c-0.3,0.5-0.7,0.9-1.1,1.3c-0.4,0.4-0.9,0.8-1.3,1.2c-0.5,0.4-0.9,0.7-1.4,1.1
		c0.2,0.4,0.8,1.3,0.7,1.3c-0.1,0-0.8,0-0.8,0.5l1.1-0.3c-0.2-0.5-0.7-1-0.7-1.3c0.2,0.3,0.4,0.7,0.5,0.8c-0.9-1.7,0.1-1,0.4-0.7
		c0.7,1.4-0.9-0.4-0.1,1.2c0.3-0.3,0.6-0.5,0.9-0.7c0.3-0.2,0.7-0.3,1-0.4c-0.6-1-0.1,0.3-0.8-0.9c0.5,0.1,0.1-0.9,0.9-0.3
		c0.5,0.9-0.1,0.5-0.2,0.7c0.2,0.5,0.4,0.1,0.6,0.1c0.4-0.4,0.7-1.1,1.5-0.7c-0.1,0.5-0.3,0.9-0.5,1.2c-0.3,0.3-0.6,0.6-0.9,0.8
		c-0.3,0.2-0.7,0.4-1,0.6c-0.3,0.2-0.6,0.4-0.8,0.7c0.1,0,0.2-0.1,0.4,0.5c-0.6,0.2-1.2,0.4-1.9,0.4c-0.7,0.1-1.3,0.1-1.9-0.1
		c-0.1,0.1-0.3,0-0.1,0.3l0.2,0l0.2,0c0.1,0,0.3,0,0.4,0.1c0.3,0,0.5,0.1,0.8,0.1c0.3,0,0.5,0,0.8,0c0.2,0,0.5-0.1,0.7-0.1
		c0.5-0.1,0.9-0.2,1.3-0.4c0.4-0.2,0.8-0.3,1.2-0.5c1.5-0.8,2.7-1.9,4.1-2.5c0.3-0.1,0.6-0.4,0.8-0.6c0.2-0.3,0.4-0.5,0.6-0.7
		c0.3-0.3,0-1.6,1.4-0.2c-0.2,0.4-0.6,0.8-1,1.1c-0.4,0.3-0.9,0.6-1.4,0.9c-1,0.6-2.1,1.2-2.9,2.1c-0.3,0.3-0.7,0.6-1.2,0.8
		c-0.5,0.2-1,0.4-1.6,0.5c-0.6,0.1-1.2,0.2-1.7,0.3c-0.5,0-1,0-1.5,0c-1-0.1,0.5,0.6,0.9,0.9c0.3,0.6-0.1,0.3,0.1,0.8
		c0.3-0.4,1,0.6,1.3,0.3c-0.6-1.2-0.5,0.3-1.2-1.2c0.4,0.2,0.6,0,0.9,0c0.3,0,0.7,0.2,1.3,1.2c0.3-0.7,1.7,0.5,1.4-1.2
		c0.5,0.8,0.3,0.6,0.5,1c0.2-0.4,1.2,1.3,0.8,0.1C18,49.5,18,50,17.6,49.1c1,0,1.4-0.3,1.5-1.6c0.8,0.9,0.9,0,1.5,0.4
		c-0.3-1.1,0.3-0.8,0.8-0.6c0.5,0.2,1,0.4,0.5-0.7c0.3,0.1,0.6,0.1,0.8,0.1c0.2,0,0.4-0.1,0.6-0.1c0.4-0.2,0.6-0.4,0.9-0.7
		c0.3-0.3,0.5-0.6,0.8-0.8c0.3-0.2,0.7-0.3,1.2-0.2c-0.2-0.4-0.3-0.7-0.2-0.8c1-1.5,2.5-2,3.7-3.1c0.4-0.4,0.2-1.6,0.4-2.3
		c0.1-0.4,0.4-0.5,0.6-0.6c0.3-0.1,0.6-0.2,0.7-0.4c0.7-1,1.6-1.6,2.4-2.4c0,0,0.1-0.3,0.1-0.3H17.7c-0.6,0-1.1-0.2-1.6-0.7L13.6,37
		z M14.1,43.6c-0.6-1.3,0.1-0.3,0.1-0.9c0.1,0.2,0.2,0.4,0.4,0.8C14.3,43.5,14.3,43.3,14.1,43.6z M14.7,43.4
		c-0.1-0.2-0.2-0.4-0.4-0.8l0.2-0.1C15,43.4,14.6,43.2,14.7,43.4z M15.7,45.5c0-1.1,1-1,1.5-1C17.2,45.2,16.3,45.5,15.7,45.5z
		 M19.2,39.9c0.9,1.5,0.1,1.2-0.2,1C18.6,40.1,19.1,40.2,19.2,39.9z M18.1,40.9c0.7,0.9-0.1,0.4,0.2,0.9
		C17.6,41,18.3,41.1,18.1,40.9z M17.8,37.7c-0.2-0.4-0.2-0.6,0-0.6C18.1,37.7,18.2,38.2,17.8,37.7z"/>
	<path fill="#ED331A" d="M18.5,13c0.4-0.2,0.7-0.4,0.8-1.1c-0.4,0.1-0.9,0.3-1.3,0.6c-0.2,0.1-0.3,0.3-0.4,0.5
		c-0.1,0.2-0.1,0.5,0,0.8C17.7,13.3,18.1,13.1,18.5,13z"/>
	<path fill="#ED331A" d="M46.1,12c0.3,0.5,0.5-0.1,0.5,0C46.4,11.7,46.3,11.7,46.1,12z"/>
	<path fill="#ED331A" d="M12.5,36.3c0.2-0.5,0.9,0,1.3-0.4c-0.2-0.4-0.6-0.9-0.7-1c0.6,1-0.8-0.7-0.3,0.1c0.7,1.1-0.1-0.4,0.6,0.7
		c0,0.2-0.4-0.5-0.5-0.4c0.2,0.3,0.5,0.7,0.4,0.8c-0.3-0.4-0.4-0.6-0.6-0.7C12.9,36,12.3,35.7,12.5,36.3z"/>
	<path fill="#ED331A" d="M13.7,35.7c0.3-0.3,0.6-0.1,0.4-0.7c-0.4-0.6-0.2,0-0.4-0.2C14.4,36.1,13,34.5,13.7,35.7z"/>
	<path fill="#ED331A" d="M11.7,37.8c0.1-0.2,0.3-0.7,0.3-1c-0.2,0.7-1.3,0.2-1.1,0.9C10.9,37.8,11.5,38,11.7,37.8z"/>
	<path fill="#ED331A" d="M9.8,39.2c-0.6,0.7,0.3,0.3,0.1-0.3C9.7,38.7,9.8,39.1,9.8,39.2z"/>
	<path fill="#ED331A" d="M10.2,48c0.2,0.3,0.3,0.7,0.5,1c0.3-0.4,1.2,0.9,0.6-0.7C10.9,48.3,10.5,48.1,10.2,48z"/>
	<path fill="#ED331A" d="M15.5,17.7"/>
	<line fill="#ED331A" x1="15" y1="31" x2="15" y2="31"/>
</g>
</svg>
