<?xml version="1.0" encoding="utf-8"?>
<!-- Generator: Adobe Illustrator 18.0.0, SVG Export Plug-In . SVG Version: 6.00 Build 0)  -->
<!DOCTYPE svg PUBLIC "-//W3C//DTD SVG 1.1//EN" "http://www.w3.org/Graphics/SVG/1.1/DTD/svg11.dtd">
<svg version="1.1" id="Layer_1" xmlns="http://www.w3.org/2000/svg" xmlns:xlink="http://www.w3.org/1999/xlink" x="0px" y="0px"
	 viewBox="0 0 50 50" enable-background="new 0 0 50 50" xml:space="preserve">
<g>
	<path fill="#ED331A" d="M33.5,4.6C33.4,4.6,33.4,4.6,33.5,4.6C32.3,4.8,34,4.6,33.5,4.6z"/>
	<path fill="#ED331A" d="M32.1,6.3c0.2-0.2,1,0,0.9-0.5c-0.3-0.1-0.2-0.1-0.3,0.1C32.5,6,31.5,6.1,32.1,6.3z"/>
	<path fill="#ED331A" d="M20.5,12.9l-0.7-0.7c-0.2,0,0.1,0.3-0.2,0c-0.1-0.1-0.2-0.2-0.2-0.2c0.2,0.2,0.4,0.5,0.7,0.7
		C20.2,12.7,20.5,12.9,20.5,12.9z"/>
	<path fill="#ED331A" d="M37.8,10.2c-0.4,0.6-0.7,0.8-1.1,1.4C37.2,11.8,38,11.1,37.8,10.2z"/>
	<path fill="#ED331A" d="M15.2,18.1c0,0.2-0.7-0.3-0.1,0.4C15.2,18.4,15.3,18.4,15.2,18.1z"/>
	<path fill="#ED331A" d="M39.7,12.2c-0.5-0.1-0.2,0-0.5,0.2c0.2,0.2,0.5,0.5,0.6,0.5C39.1,12.2,40.3,12.9,39.7,12.2z"/>
	<path fill="#ED331A" d="M39.3,14.5c0.1,0.1,0.2,0.2,0.3,0.3c0.1,0.1,0.2,0.2,0.2,0.1c-0.4-0.4,0.4,0.1,0.4,0.3
		c0.1-0.1,0.3,0,0.1-0.2C40.1,15,39.5,14.4,39.3,14.5z"/>
	<path fill="#ED331A" d="M6.1,25.8c-0.3,0-0.4,0-0.3,0.4C6,26.1,6.3,26.3,6.1,25.8z"/>
	<path fill="#ED331A" d="M49.6,16.1c-0.5,0-0.2,0.4,0.1,0.8C49.8,16.6,50.4,16.9,49.6,16.1z"/>
	<path fill="#ED331A" d="M40.9,27.2C40.5,27.5,40,28,41,27.6C40.8,27.3,41.1,27.5,40.9,27.2z"/>
	<path fill="#ED331A" d="M4.5,35.3c-0.2-0.4-0.2-0.5-0.4-0.8c-0.3-0.1,0,0.4-0.3,0c0.4,0.6,0.5,1,0.8,1.3c-0.2-0.3-0.4-0.8-0.4-0.8
		C4.4,35.1,4.5,35.3,4.5,35.3z"/>
	<path fill="#ED331A" d="M38.3,30.2c0.2,0,0.3-0.2,0.1-0.5C38.3,29.8,38,29.8,38.3,30.2z"/>
	<path fill="#ED331A" d="M37.7,31c0.2-0.2,0.5-0.4,0.3-1C37.9,30.4,37.3,30.4,37.7,31z"/>
	<path fill="#ED331A" d="M36,32.4c0.1-0.3,0.6,0.1,0.2-0.5C35.9,31.9,35.8,32,36,32.4z"/>
	<path fill="#ED331A" d="M7.4,38.7c-0.4-0.3-0.3,0-0.7-0.2C7.2,39.3,7.6,39.1,7.4,38.7z"/>
	<path fill="#ED331A" d="M49.3,15.5c-0.6-0.5-1.2-1.1-1.6-1.2c-0.5-0.8-0.7-1.2-2-2.2c-0.6-0.3-0.6,0.3-1,0.1
		c-0.3-0.3,0.3-0.1-0.1-0.4c-0.5,0-0.1,0.7-0.4,0.6c0.3,0.3,0.4,0.3,0.7,0.6c-0.3,0.8-1.1,1.7-1.4,2.4c-0.2-0.2-0.2-0.3-0.4-0.5
		c-1.2,0.3-1.1,1.7-2.4,1.2c0.1,0,0.5,0.4,0.5,0.5c-0.5,0-0.2,0.5-0.6,0.2c0-0.3-0.5-0.7-0.5-0.9c0.2,0.2,0.3,0.4,0.5,0.5
		c0.1-0.2,0-0.2,0.3-0.1c-1.4-1.2,0.2-0.1-0.6-0.9c-0.3-0.3-0.4,0-0.8-0.4c0.4,0.4,0.6,0.5,0.6,0.7c-0.4-0.2-0.8-0.5-1.1-0.7
		c0.3,0.4,0.8,0.6,0.7,0.7c-0.4-0.2-1.1-1.1-1.5-1.1c0.1-0.4,1,0.4,1.6,0.8c-1.1-1-1.2-0.9-2.4-2.1c0,0.1,0.6,0.6,0.6,0.7
		c-0.6-0.6-0.6-0.3-1.4-1.1c0.4,0.1-0.3-0.9,0.3-0.8c-0.2-0.2-0.5-0.5-0.5-0.5c-0.1-0.4,0.6-0.8,0.2-0.7c-0.4,0.1-0.7,0.4-0.8,0.9
		c-0.2-0.2-0.5-0.4-0.7-0.7c-0.5-0.2,0.5,0.6,0.3,0.5c-0.4-0.3-0.8-0.8-1.2-0.9c0.4,0.4,0.8,0.7,1.1,1c0.2,0.4-0.1,0.3-0.5,0.1
		c0.1-0.1-0.3-0.5,0.2-0.3c-0.5-0.6-0.4-0.1-1-0.8c-0.5-0.5-0.1-0.5,0.2-0.3c0-0.1-0.6-0.6-0.6-0.7c0.7,0.4-0.1-0.6,0.4-0.6
		c-0.1-0.3-0.7-0.6-0.6-0.7c0.7,0.5,2-0.5,1.2-0.8c0.1-0.1,0.5,0.2,0.7,0.2c-0.8-0.7,0.4-0.1-0.5-0.9C34.6,7.3,34,7.4,34,7.9
		c-0.2-0.2-0.3-0.3-0.5-0.5c0,1-1.5,0.5-0.9,1.6c0-0.1-0.8-0.8-0.7-0.9c0.4,0,0-0.5,0.7,0c-0.4-0.3-0.3-0.4-0.4-0.5
		c0,0.2-0.4-0.1-0.6-0.2c0,0.1,0.4,0.7,0.1,0.4C31.3,7.5,30.6,7,30.8,7c0.6,0.6-0.2-0.2,0.6,0.3c-0.5-0.4-0.5-0.5-0.7-0.6
		c0.1,0.2-0.5,0.1,0,0.6c-1.7-1.7,0.2-0.7-0.2-1.2c-0.7-0.3-0.9,0-1,0.3c-0.2-0.2-0.3-0.3-0.5-0.5l-0.3,0.1c0.1,0.3,0.6,0.5,0.6,0.7
		c-0.1,0.1-0.7-0.5-0.8-0.4c0.7,0.7-0.1-0.3,0.8,0.6c-0.2,0-0.8,0-0.5,0.4c-0.2-0.2-0.5-0.5-0.6-0.5c0.8,0.8,0.3,0.8-0.2,0.5
		c-0.2-0.3-0.6-0.6-0.6-0.7c0-0.3,0.8,0.7,0.7,0.4c-1.1-1,0.5-0.1-0.3-1c-3.4,1.4-6,3.4-7.9,6.1c0.6,0.3,0.4,0.3,0.9,0.8
		c-0.3-0.4,0.3-0.1,0.3-0.1c-0.3,0.3-0.5,0.8-0.9,1.2c-0.4,0.4-0.9,0.9-1.5,1.2c0.6,0.6,0.2,0.4,0.5,0.7c0.5-0.3,0.8-0.6,1.1-0.8
		c0.3-0.2,0.7-0.4,1.2-0.3c-0.2,0.9-1.8,0.5-1.2,1.9c-0.2,0-0.3-0.5-0.4-0.3c0.4,0.6,0.1,0.8-0.3,1.1c-0.3,0.3-0.7,0.6-0.4,1.3
		c-0.6-0.7-0.1,0.3-0.8-0.5c0.2,0.7-0.1,0.5-0.1,0.9c-0.2-0.4-0.7-0.5-0.4-0.1c-0.1,0.5-0.8,0.9-1.4,1.3c-0.3,0.2-0.6,0.4-0.8,0.6
		c-0.2,0.2-0.3,0.5-0.2,0.8c-1.1-1,0.1,0.5-0.9-0.3c0.3,0.4,0.4,0.4,0.6,0.5c0,0.3-0.5-0.5-0.6-0.3c0.3,0.6-0.2,0.7-0.7,0.8
		c-0.5,0.1-1,0.1-0.8,0.7c-0.4-0.4-0.6-0.2-0.3,0.2c-0.9-0.9-0.3-0.3-0.2,0c-0.3-0.4-0.5-0.6-0.6-0.5c0.6,0.8-0.1,0.1-0.2,0
		c0.1,0.3,0.5,0.6,0.5,0.8c-0.4-0.5-0.8-0.7-0.9-0.7c-0.1,0-0.1,0.1-0.1,0.3c0,0.2,0.1,0.4,0.2,0.7c-0.8-0.6-0.5,0.2-0.8,0.3
		c0,0-0.3-0.4-0.3-0.4c-0.6-0.2-0.4,0.7-0.8,0.7c0.1,0,0.1,0,0.2,0.2c-0.4,0.2-1-0.5-0.6,0.5c-0.8-1.2,0.3,0.7-0.4-0.4
		c-0.2,0.6-0.7,0.9-1.2,1.2c-0.2,0.1-0.5,0.3-0.6,0.4c-0.2,0.2-0.3,0.4-0.3,0.7c-0.2-0.1-0.2-0.2-0.5-0.4c0.2,0.5-0.1,0.6-0.5,0.8
		c-0.3,0.2-0.7,0.4-0.6,1c-0.2-0.2-0.4-0.2-0.6-0.1c-0.2,0.1-0.3,0.2-0.4,0.3c-0.3,0.2-0.6,0.4-0.4,1.2c-0.3-0.7-0.4-0.7-0.7-1
		c0.2,0.3,0.4,0.7,0.2,0.6c-0.6-1.2-0.2,0.3-1-1.3L2,28c0,0.2,0.3,0.8,0.3,1c-0.3-0.7-0.3-0.2-0.6-0.8c0,0.3-0.4,0.1-0.4,0.4
		C1.2,28.4,1,28.1,1,28c0.1,0.2,0.1,0.4,0.2,0.6c-0.6-0.8-0.6,0.1-1.1-0.2c0.4,0.7,0.2,0.7,0.4,1.3c0.6,0.4,0.3-0.2,0.6,0
		c0.4,0.7-0.2,0.2,0.4,1.3c0.1-0.4,0.5,0.3,0.3-0.4c0.2,0.3,0.3,0.5,0.4,0.6c0.3,0.9-0.2,0.4,0.1,1.3c0.4,0.6,0.8,0.7,1.2,1
		c0.3,0.6-0.4-0.2,0,0.4c0.3,0.1,0.4,0,0.2-0.6c0.4,0.4,0.5,1.1,0.8,1.3c-0.2-0.3-0.4-0.8-0.4-0.8c0.7,1.1-0.3-0.5,0.1-0.2
		c0.2,0.4,0.2,0.5,0.4,0.8c0.3,0.2-0.3-0.7-0.2-0.8c0.3,0.7,0.4,0.5,0.6,0.8C5,34.2,5,34,5.1,33.9c0-0.1,0.1-0.1,0.2,0
		c0.1,0.1,0.2,0.2,0.5,0.5c0-0.1-0.7-1.2-0.6-1.2c0.2,0.4,0.8,1.4,0.7,1.5c-0.1,0.1-0.1,0.1-0.2,0.1c-0.1,0-0.2,0-0.2,0
		c-0.2,0-0.4-0.1-0.5-0.1c-0.3-0.1-0.6-0.3-0.7-0.2c0,0,0.8,1.5,0,0.4c0.2,0.6,1.2,2.4,0.6,1c0.2,0.3,0.3,0.6,0.5,0.8
		c0.2,0,0.4,0.1,0.8,0.6C6,37.3,5.3,37,5.8,37.6C6,37.5,7.1,38.3,7,37.9c0.2,0,0.4,0.1,0.7,0c0.2,0,0.4,0,0.7-0.1
		c0.4-0.1,0.9-0.3,1.4-0.4c0.2-0.1,0.5-0.2,0.7-0.2c0.3-0.1,0.5-0.2,0.8-0.2c0.5-0.1,1.1-0.2,1.7-0.1c-0.2,0.6-1,0.4-1.3,0.7
		c-0.2,0.2-0.6,0.5,0,1.1c-0.4-0.6,0.3-0.2,0.5-0.7c0.2,0.2,0.3,0.6,0.4,0.6c-0.1-0.2-0.4-0.6-0.3-0.6c0.4,0.6,0.7,0.9,0.9,1
		c0,0.4-0.4-0.2-0.4,0.2c-0.5-0.8-0.6-0.5-0.2,0c-0.2,0-0.5-0.5-0.6-0.6c0.2,0.3,0.5,0.7,0.4,0.8c-0.3-0.3-0.3-0.6-0.6-0.8
		c0.2,0.4,0.4,0.7,0.4,0.8c-0.4-0.1-0.3,0.1-0.8-0.6c0.1,0.3,0.7,1,0.6,1c-0.4-0.7-0.5-0.1-0.3,0.2c-0.3-0.4-0.4-0.3-0.6-0.1
		c-0.1,0.2-0.3,0.5-0.6,0.4c0.2,0.4,0.3,0.4,0.5,0.6c-0.3-0.2-0.1,0.1-0.5-0.4c0.2,0.7,0,0.7-0.2,0.5c-0.3-0.1-0.6-0.4-0.7-0.3
		c-0.3-0.5,0.1-0.2-0.4-1.1c-0.5-0.3,0.2,0.8,0.3,1.1c-0.2-0.3-0.5-1.1-0.6-1c0.1,0.5-0.1,0.1,0.4,0.8c-0.2,0-0.5-0.6-0.7-0.8
		c0.7,1.5-0.8-0.1-1.1,0c0.3,0.5,0.2,0.7,0.5,0.8c-0.1-0.2-0.2-0.4-0.2-0.4c0.5,1.1,0.3,0.2,0.5,0.6c0.4,0.9-0.4-0.1-0.2,0.6
		c-0.3-0.8-0.5-0.1-1.1-1.5c-0.4-0.2,0.4,0.5,0.2,0.6c-0.7-1.1-0.1-0.1-0.2,0c-0.1,0.3-0.7-0.6-1.1-0.6c0.2,0.4,0.3,0.5,0.5,0.8
		c0.4,0.6-0.1-0.6,0.2,0c-0.1,0,0.7,1.5,0.5,0.8c-0.6-0.9-0.1-0.5,0.1-0.2c0.1,0.4,0.2,0.4-0.2,0c0.7,1.1,0.8,0.8,1.2,1.5
		c-0.4-0.1-0.9-0.9-1-0.6c-0.2-0.3-0.4-0.8-0.5-0.8c0.2,0.4,0.2,0.5,0.2,0.6c-0.1-0.2-0.2-0.4-0.3-0.4c0.6,1.1,0.8,0.6,1.3,1.7
		c-0.3,0-1-0.9-0.9-0.4c1.5,1.5,2.6,2.3,3.6,2.7c0.5,0.2,1,0.3,1.4,0.4c0.1,0,0.2,0,0.4,0.1c0.1,0,0.3,0,0.4,0c0.3,0,0.5,0,0.8,0
		c0.1,0,0.3,0.4,0.4,0.4c0.6,0.3,1,0.2,1.4-0.1c0.3-0.2,0.6-0.5,1-0.6c1.1-0.3,2.3-0.6,3.1-1.4c-0.3-0.1-0.3,0.3-0.7-0.1
		c0.2-0.1,0.4-0.2,0.5-0.3l0.5-0.3c0.3-0.2,0.7-0.4,1-0.5c0.7-0.4,1.4-0.7,2.1-1.1c0.7-0.4,1.4-0.7,2-1.1c0.2-0.1,0.3-0.2,0.5-0.3
		c0.2-0.1,0.3-0.2,0.5-0.3c0.3-0.2,0.7-0.4,1-0.6c0.3-0.2,0.6-0.4,1-0.6c0.3-0.2,0.6-0.4,0.9-0.6c0.6-0.4,1.2-0.9,1.7-1.3
		c0.6-0.5,1.1-0.9,1.6-1.4c0.5-0.5,1-1,1.4-1.6c0.2,0.2,0.5,0.4,0.3,0.1c-0.9-0.9-0.6,0.3-1.2-0.1c-0.3-0.5,0.1-0.4-0.7-0.9
		c0.5,0.2,0.1-0.6,0.7,0c0,0.1-0.5-0.1-0.2,0.3c0.7,0.3,0.7-0.7,1.7-0.2c-0.2,0.1-0.7,0.2-0.1,0.7c0.2-0.2,0.8-0.4,0.8-0.9
		c0.3-0.4-0.6,0.1-0.6,0c0.1-0.4,0.2-0.8,0.4-1c0.1-0.1,0.3-0.2,0.5-0.1c0.2,0,0.5,0.1,0.8,0.2c-1-1.4,0.8-0.4,0.4-1.4
		c-0.5-0.3-0.2,1-1.2,0.1c0-0.5,1-0.3,0.9-0.7c0.2,0.2,0.3,0.3,0.5,0.5c0.3-0.2,0.6-0.3,0.8-0.5c0.2-0.2,0.4-0.5,0.3-0.9
		c-0.1,0-0.2,0.1-0.4-0.1c0.3-1,1.6-1.4,1.8-2.5c0.9,0.5,1.2,0.1,1.4-0.5c0.2-0.6,0.3-1.3,0.9-1.5c0.2,0.2,1.2,1.1,0.7,0.4
		c-0.7-0.2-0.1-0.8,0.6,0c-0.8-1.2,0.5-0.3,0.2-1.2c0.4,0.3,0.6,0.3,0.9,0.6c-0.3-1-0.7-2.6,0.9-1.8c-0.3,0.3-0.7,0.5-0.4,1.2
		c0.4-0.5,1.4-0.9,1.4-1.8c0.5,0.6,0.9,0.6,0.6,0.3c-0.1,0-0.2,0.1-0.5-0.3c0.3-0.1,0.7-0.1,0.6-0.4c0.4,0.4,0.2,0.4,0.4,0.7
		c0.1-0.1,0.2-0.3,0-0.7c-0.1,0-0.2,0.1-0.4-0.1c0.2-0.1,0-0.5,0.6-0.2c-0.3-0.9,0.5-1,1-1.2c0.2,0.2-0.3,0.2,0.1,0.4
		c0.3,0-0.1-0.5,0.6,0c-0.3-0.3-0.4-0.3-0.7-0.6c0.1,0-0.1-0.2-0.1-0.2c0.6-0.3,0.7-1.1,0.9-1.6c0.2,0.2,0.3,0.4,0.5,0.5
		c-0.3-0.3,0.1-0.1-0.2-0.4c-0.1,0-0.1,0-0.3-0.1c-0.1-0.1-0.1-0.5,0.3-0.1c-0.1,0,0.1,0.3,0.3,0.3c-0.2-0.4,0-0.4-0.3-0.8
		c0.8,0.6-0.5-1.7,1-0.6C49.2,16.8,48.7,15.8,49.3,15.5z M2.2,28.5c-0.1-0.2,0-0.2,0-0.2c0.2,0.3,0.4,0.7,0.6,1
		c-0.2-0.1,0.1,0.6-0.3,0c-0.1-0.2-0.2-0.3-0.2-0.4c0-0.1,0-0.1,0-0.1c0.1,0,0.2,0.2,0.3,0.2C2.5,28.7,2.3,28.4,2.2,28.5z M3.6,32.4
		C3.4,32,3.4,32,3.2,31.6l-0.1,0c0.3,0.6-0.2,0.6-0.9-0.6c0.7,0.8,0.7-0.2,1.4,0.2C3.4,31.4,3.7,32,3.6,32.4z M3.6,31
		c0.2,0.2,0.3,0.1,0.2-0.2c0.6,0.7,0,0.2,0.4,0.8C4,31.5,3.9,31.5,3.6,31z M4.1,31.2c-0.2-0.6,0.2-0.4,0.4-0.2
		c0.1,0-0.2-0.7-0.2-0.8c0.5-0.2,0.9-0.5,1.3-0.8C6,29,6.4,28.7,6.9,28.3c0.2-0.2,0.4-0.4,0.7-0.5c0.1,0,0.1-0.1,0.2-0.1
		c0.1,0,0.1-0.1,0.2-0.1c0.1-0.1,0.2-0.2,0.3-0.3c0.5-0.4,1-0.7,1.6-0.9c-0.2,0.5-0.5,0.9-0.8,1.3c-0.2,0.2-0.4,0.3-0.6,0.5
		c-0.1,0.1-0.2,0.1-0.3,0.2c-0.1,0.1-0.2,0.1-0.3,0.2c-0.4,0.2-0.9,0.4-1.3,0.7c-0.4,0.2-0.8,0.5-1.1,0.8c-0.2,0.2-0.5,0.7-0.9,0.8
		c0.7,0.7,0.5-0.4,0.9,0c0.2,0.6,0,0.8-0.4,0.8C4.8,31.5,4.4,31.3,4.1,31.2z M6.9,31.5c-0.4-0.7,0-0.5,0.1-0.6
		c0.1,0.2,0.3,0.4,0.4,0.6c0.3-0.1,0.4-0.6,0.8-0.4c0.2,0.3,0.3,0.5,0.5,0.8c-0.3-0.3-0.5-0.1-0.6,0.1c-0.2,0.2-0.4,0.3-0.8,0
		c-0.2-0.3,0-0.2,0.1-0.2C6.9,31.2,7,31.4,6.9,31.5z M5.8,30.9c-0.4-0.8-0.1-0.5,0.2-0.4C6.3,31,6,30.9,5.8,30.9z M6.1,30.2
		c0-0.1,0-0.2,0.1-0.2c0.1-0.1,0.3,0,0.5,0.1c0,0.2-0.1,0.3-0.2,0.4c0,0-0.1,0.1-0.2,0.1c-0.1,0-0.1,0.1-0.2,0.1
		C6.2,30.5,6.1,30.3,6.1,30.2z M6.5,32.1c-0.3-0.5,0-0.4,0.4,0.2c-0.3-0.4-0.1,0.2-0.4,0c-0.1-0.2-0.2-0.4-0.4-0.6
		C6.2,31.7,6.3,31.9,6.5,32.1z M7.8,30.2c0.4,0.6,0,0.4-0.1,0.4C7.1,29.9,7.8,30.4,7.8,30.2z M5.1,32c0.2,0,0.6,1,0.8,1
		c0-0.1-0.2-0.4-0.4-0.8c0,0.1,0.2,0.5,0.1,0.4c-0.4-0.8-0.2-0.8,0-0.8c0.2,0,0.5,0.2,0.4-0.2c0.1,0.4,0.5,0.9,0.2,0.2
		c0.4,0.7,0.3,0.8,0.1,0.7c-0.2,0-0.5-0.2-0.5,0.1c0.2,0.2,0.2,0.2,0.5,0.6C6,33,6,33.5,6,33.5C5.7,33,5.7,32.9,5.1,32z M6.3,36.6
		c0,0.2,0.2,0.5,0.4,1c-0.3-0.2-0.6-1.1-0.7-1.5c0.2,0.3,0.5,0.4,0.8,1C6.7,37,6.6,37.2,6.3,36.6z M9,37.4c-0.1,0-0.6-0.9-0.1,0
		c-0.9-0.4-1.1,0.2-1.6,0C7,36.9,7.5,36.8,7.8,37c0.1,0-0.4-0.7-0.3-0.8c0.1,0,0.3,0.4,0.4,0.6c0-0.2,0.1-0.3-0.1-0.6
		C8,36.1,8,36.7,8.3,36.8c-0.6-1,0.2-0.6,0.2-1c0.4,0.7,0.4,0.9,0.8,1.2C9.3,37.3,8.6,36.6,9,37.4z M9.2,34.4
		c-0.1,0.1-0.2,0.3-0.3,0.4c-0.2,0.2-0.4,0.5-0.7,0.7c-0.5,0.4-1.1,0.5-2,0.1c-0.1,0,0.2,0.7,0,0.6c-0.7-1.2-0.3,0.7-1.5-1
		c-0.3-0.5,0.2,0.1,0.3,0.4c-0.1-0.3,0.1-0.4,0.4-0.4c0.1,0,0.3,0.1,0.5,0.1c0.2,0,0.3,0.1,0.4,0.1c0.4,0,0.8-0.4,1.1-0.6
		c0.3-0.3,0.6-0.5,1-0.2c-0.1-0.4,0-0.4,0.2-0.4c0.2,0,0.5,0.1,0.7,0C9.4,34.2,9.3,34.3,9.2,34.4z M8.5,33.5
		c-0.1,0.1-0.3,0.1-0.4,0.2c-0.1,0-0.3,0.1-0.4,0.1C7.4,33.9,7.2,34,7,34.1c-0.3,0.2-0.4,1-1.3-0.2c0.8,0.3,1.4-0.2,2-0.7
		c0.3-0.2,0.6-0.5,1-0.7c0.3-0.2,0.7-0.3,1.2-0.1C9.5,33,9,33.3,8.5,33.5z M10.9,26c0-0.4,0.1-1.1,1-0.3
		C11.2,25.5,11.6,26.4,10.9,26z M8.8,41.6c0-0.3-0.4-0.7-0.2-0.2c0,0-0.1-0.1-0.2-0.2c-0.1-0.1-0.2-0.3-0.2-0.4
		C8.4,40.6,9.1,41.7,8.8,41.6z M9.7,42.7c-0.5-0.7-0.5-0.8-1-1.7c0.1-0.3,0.7,0.4,0.6,0.2C10,42.1,10.3,43.1,9.7,42.7z M11.2,42.9
		c-0.1,0-0.3,0-0.4,0c-0.1,0-0.3,0-0.4,0c-0.3-0.4-0.5-1.2-0.6-1.5c0.2,0.2,0.6,1,0.8,1c0-0.2-0.2-0.6-0.4-0.8c0,0,0.3,0.2,0.4,0
		c0.2,0.3,0.1,0.4,0.3,0.6c0.1-0.1,0.5,0.2,0.7,0.3c0.3,0.1,0.4,0.1,0.1-0.6c0.1,0,0.4,0.7,0.7,1C11.8,43,11.5,43,11.2,42.9z
		 M36.7,13c0.7,0.6-0.2,0.2,0.6,0.9c-0.3-0.2-0.6-0.4-1-0.8C36.9,13.5,36.5,13.2,36.7,13z M34,10.7c0.6,0.5,0.4,0.5,1,1
		c-0.3-0.1-0.5-0.2-0.3,0.1c-0.2-0.2-0.5-0.4-0.7-0.7C34.5,11.4,33.5,10.4,34,10.7z M32.2,8.7l-0.3,0.1c-0.3-0.6-0.5-0.6-0.8-0.6
		C30.4,7.4,31.7,8.2,32.2,8.7z M29.5,6.7c-0.2-0.1-0.5-0.4-0.6-0.5c-0.1-0.3,1.1,0.7,1,0.4c0.2,0.2,0.6,0.6,0.7,0.9
		c-0.3-0.1-0.3-0.4-0.7-0.7c0.4,0.7-0.6,0.1-0.5,0.8C28.8,7,29.6,6.9,29.5,6.7z M28.6,7.8c0.4,0.3,0.3,0.7-0.3,0.1
		C28.2,7.5,28.6,7.9,28.6,7.8z M28,8.6c-0.1-0.4,0-0.5,0.4-0.5C28.6,8.5,28.3,8.6,28,8.6z M27.3,6.7c0.5,0.5,0.4,0.5,0.8,0.8
		c-0.2-0.1-0.5-0.4-1-0.8L27.3,6.7z M27.9,7.6c-0.2,0-0.7-0.6-0.8-0.6C26.6,6.3,27.8,7.3,27.9,7.6z M27.8,7.6c0,0.1-0.3-0.1-0.3-0.1
		c-0.1,0,0,0.1,0.1,0.2c-0.2,0-0.4-0.5-0.6-0.7C27.2,7.1,27.4,7.2,27.8,7.6z M26.6,6.9c0.1,0,0.4,0.3,0.6,0.5c0.3,0.5-0.5,0,0.1,0.6
		c-0.1,0-0.4-0.3-0.8-0.6c0.1,0,0.2,0.2,0.3,0.1C26.2,6.7,27.6,7.8,26.6,6.9z M26.8,7.7c0.4,0.6,0,0.3-0.3,0.3
		c-0.2-0.2,0.1-0.1-0.2-0.4C26.8,7.9,26.3,7.3,26.8,7.7z M26.5,8.4c-0.6-0.4,0.3,0.8-0.8-0.2C26.3,8.5,25.8,7.7,26.5,8.4z M25.5,8.2
		c0.5,0.2,0.7,0.7,0.3,0.6C25.1,8.2,26,8.7,25.5,8.2z M15.1,23.2c0.1-0.2,0.2-0.4,0.4-0.5c0.3-0.3,0.7-0.6,1-0.9
		c0.1-0.1,0.3-0.2,0.4-0.3c0.2-0.1,0.3-0.1,0.5-0.2c0.4-0.1,0.8-0.2,1.1-0.3c0.3,0.5-0.1,0.3-0.2,0.5c-0.2,0.3,0,0.6-0.4,0.5
		c-0.8-0.2-1.2,0.3-1.6,0.8c-0.2,0.3-0.4,0.5-0.6,0.8c-0.2,0.2-0.5,0.4-0.9,0.4C15,23.6,15,23.4,15.1,23.2z M17.6,22.4
		c0.5,0.7,0.1,0.6-0.1,0.6C17.1,22.5,17.7,22.8,17.6,22.4z M14.2,23.8c0.6,0.7-0.3,0.1,0,0.6C13.9,24.1,14,23.7,14.2,23.8z
		 M14.2,26.9c0.1,0.7-0.6,0.6-1,0.7C13.2,26.9,13.5,26.7,14.2,26.9z M13.9,39.6c-0.9-1,0-1.2,0.3-1.1C14.9,39.5,13.4,38.9,13.9,39.6
		z M14.4,27.1c-0.2-0.4-0.1-0.4,0.1-0.4C14.8,27.2,14.5,26.9,14.4,27.1z M15.2,26.3c-0.4-0.8,0.2-0.4,0.5-0.5
		C16,26.4,15.5,26.3,15.2,26.3z M16.3,24.5c-0.1,0.1-0.2,0.2-0.4,0.2c-0.1,0.1-0.3,0.1-0.4,0.2c-0.3,0.1-0.6,0.3-0.8,0.4
		c0.1-0.4,0.2-0.6,0.4-0.8c0.2-0.2,0.4-0.4,0.7-0.6c0.5-0.3,1-0.6,1.4-1C17.1,23.7,16.8,24.1,16.3,24.5z M17.1,34.4
		c-0.4-0.7,0.1-1.1,0.8-0.1C17.5,34.3,17.5,34.6,17.1,34.4z M19.8,36.6c-0.4-0.4-0.5-1,0-0.8C20.6,36.8,19.5,36.2,19.8,36.6z
		 M23.9,38.7c-0.1,0.1-0.2,0.2-0.3,0.3c-0.1,0.1-0.2,0.2-0.4,0.2c-0.5,0.3-1.2,0.4-1.9,0.4c0.9-0.7,2-1.2,3-1.6
		C24.2,38.3,24.1,38.5,23.9,38.7z M24.2,37.8c0.1-0.2,0.4-0.1,0.5-0.3c0.1,0.2,0,0.2,0.3,0.6C24.6,37.6,25,38.9,24.2,37.8z M28,36
		h-4v-4v-7h-4v-2v-1v-1h4v-2.7c0-1.7,0.3-3,1.3-3.9c0.9-0.9,2.1-1.4,3.7-1.4c1.3,0,2,0.1,3,0.2V17h-2.1c-0.8,0-1.3,0-1.5,0.4
		c-0.3,0.3-0.4,0.7-0.4,1.4V21h3.9l-0.5,4H28v10V36z M32.4,23.3c-0.7-0.4,0.1-0.3-0.4-0.8c0.1,0,0.4,0.3,0.4,0.3
		C32.7,23.3,32.1,23.1,32.4,23.3z M32.5,14.2c0.6,0.5-0.1,0.2,0.2,0.6C32.1,14.3,32.4,14.4,32.5,14.2z M33,11.9
		c0.2-0.2,0.9,0.6,0.2-0.3C34.2,12.3,34.1,13.1,33,11.9z M33.2,11.4c0.7,0.5,0.3-0.2,1.1,0.5c-0.5-0.3,0.3,0.5-0.5-0.1
		c0.4,0.5,0.5,0.4,0.9,0.8C34.4,12.7,33.7,11.9,33.2,11.4z M34.6,31.5c-0.2-0.3-0.1-0.4,0.1-0.5C35.3,31.8,34.8,31.5,34.6,31.5z
		 M34.5,21.7c0-0.3-0.2-0.9,0.4-0.6C35,21.5,34.8,21.5,34.5,21.7z M34.7,16.6c-0.7-0.8-0.4-0.8-0.1-0.8c0.6,0.5-0.1,0.2,0.6,0.7
		C34.7,16.3,34.8,16.5,34.7,16.6z M34.5,15.4c0.1,0,0.1-0.1-0.1-0.2c0.1-0.1,0.6,0.6,0.9,0.8C35.1,15.9,34.9,15.8,34.5,15.4z
		 M35.8,20.4c-0.1-0.1-0.2-0.3-0.4-0.5c0.2,0.1,0.9,0.7,0.2-0.1c0.2,0.2,0.3,0,0.7,0.5C35.8,20.1,36.1,20.4,35.8,20.4z M36.2,13.1
		c0.3,0.3,0.5,0.5,0.6,0.5c0.2,0.1,0.1,0.2,0.1,0.2c0,0.1,0.2,0.2,0.5,0.5c-0.2,0-0.8-0.7-0.8-0.4C36.7,13.7,36,13.1,36.2,13.1z
		 M36.3,19.4c0.3,0.1,0.4,0,0.2-0.3C37.1,19.3,37.1,20.2,36.3,19.4z M36.5,18.9c0.5,0.4,0.1-0.2,0.5,0.1
		C37.6,19.5,37,19.6,36.5,18.9z M37.5,15.3c0.3,0.1,0.3-0.1,0.5,0.1c0.6,0.6-0.5-0.1,0.4,0.8C38.1,16,38,15.9,37.5,15.3z M38.5,15.7
		c-0.9-0.6,0-0.2-0.6-0.7c0.1-0.1,0.5,0.3,0.8,0.6C38.8,15.9,38,15.2,38.5,15.7z M39.6,16.4c0-0.2-0.6-0.7-0.8-1
		c0-0.2,0.5,0.3,0.6,0.3c0.4,0.3,0,0.3-0.3-0.1c-0.1,0.1,0.7,0.7,0.7,0.6C40.1,16.6,39.9,16.6,39.6,16.4z"/>
	<path fill="#ED331A" d="M37.3,5.6c1.3,0-0.5-0.4-0.4,0.1C37.4,6,37,5.6,37.3,5.6z"/>
	<path fill="#ED331A" d="M19.4,13.1c-0.2-0.3,0.5,0,0.3-0.5C19.5,12.5,18.9,12.7,19.4,13.1z"/>
	<path fill="#ED331A" d="M38.7,14.1c0.2-0.4,0.7-0.8,0.4-1.7c-0.1,0.4-0.3,0.5-0.7,0.7c0.2,0.2,0.5,0.5,0.5,0.5
		c-0.6-0.5-0.1,0.1-0.1,0.2c-0.2-0.2-0.3-0.3-0.5-0.5C38.4,13.5,38.1,13.7,38.7,14.1z"/>
	<path fill="#ED331A" d="M10.5,22.2c0.7,0.6-0.2-0.8,0.4-0.2c-0.4-0.6-0.4-0.3-0.5-0.4C11.1,22.4,10,21.6,10.5,22.2z"/>
	<path fill="#ED331A" d="M4.9,25.2c0,0.2-0.5,0.1-0.1,0.6C4.6,25.4,5.4,26,4.9,25.2z"/>
	<path fill="#ED331A" d="M3.2,27c-0.4-0.5-0.6-0.5-0.7-0.2c-0.1,0.3-0.1,0.9-0.1,1.3C2.7,28,2.9,27.2,3.2,27z"/>
	<path fill="#ED331A" d="M5.7,38.3c0.4,0.9,1,1.4,0.6,0.6c-0.1,0-0.2-0.1-0.3-0.4c0,0,0-0.2-0.1-0.2C6.1,38.6,5.8,38.2,5.7,38.3z"/>
	<path fill="#ED331A" d="M35.5,3.5c-1.3-0.5-1,0.1-1.9-0.1C33.8,3.6,34,3.8,34.1,4c-0.5-0.4-0.9,0-0.6,0.4
		C34.5,4.2,35.3,4.1,35.5,3.5z"/>
</g>
</svg>
