<?xml version="1.0" encoding="utf-8"?>
<!-- Generator: Adobe Illustrator 18.0.0, SVG Export Plug-In . SVG Version: 6.00 Build 0)  -->
<!DOCTYPE svg PUBLIC "-//W3C//DTD SVG 1.1//EN" "http://www.w3.org/Graphics/SVG/1.1/DTD/svg11.dtd">
<svg version="1.1" id="Layer_1" xmlns="http://www.w3.org/2000/svg" xmlns:xlink="http://www.w3.org/1999/xlink" x="0px" y="0px"
	 viewBox="48.8 40.9 455 88" enable-background="new 48.8 40.9 455 88" xml:space="preserve">
<g>
	<g>
		<path fill="#FFFFFF" d="M156.5,48.3h-42.7v-6.1h42.7V48.3z"/>
		<path fill="#FFFFFF" d="M70,99.8h-5.9v-2.2c-1.6,1.7-3.6,2.5-6.1,2.5c-2.4,0-4.3-0.7-5.7-2.1c-1.6-1.7-2.5-4-2.5-6.9V75.5h6.1
			v14.7c0,1.5,0.4,2.7,1.3,3.4c0.7,0.7,1.6,1,2.7,1c1.1,0,2-0.3,2.7-1c0.9-0.8,1.3-1.9,1.3-3.4V75.5H70C70,75.5,70,99.8,70,99.8z"/>
		<path fill="#FFFFFF" d="M96,99.8h-6.1V85.1c0-1.5-0.4-2.7-1.3-3.5c-0.7-0.6-1.6-1-2.7-1c-1.1,0-2,0.3-2.7,1
			c-0.9,0.8-1.3,1.9-1.3,3.5v14.7h-6.1V75.5h5.9v2.2c1.6-1.7,3.6-2.5,6.1-2.5c2.4,0,4.3,0.7,5.7,2.1c1.6,1.6,2.5,3.9,2.5,6.9
			L96,99.8L96,99.8z"/>
		<path fill="#FFFFFF" d="M107.9,71.3h-6.1v-4.9h6.1C107.9,66.4,107.9,71.3,107.9,71.3z M107.9,99.8h-6.1V75.5h6.1
			C107.9,75.5,107.9,99.8,107.9,99.8z"/>
		<path fill="#FFFFFF" d="M134.1,87.6c0,2.5-0.1,4.4-0.3,5.6c-0.3,2-1.1,3.6-2.1,4.7c-1.5,1.5-3.4,2.2-5.9,2.2
			c-2.5,0-4.5-0.9-6.1-2.6v2.3h-5.9V66.5h6.1v11.1c1.5-1.6,3.4-2.4,5.9-2.4c2.5,0,4.4,0.7,5.9,2.2c1.1,1.1,1.8,2.6,2.1,4.7
			C134,83.3,134.1,85.1,134.1,87.6z M128,87.6c0-2.1-0.2-3.7-0.5-4.6c-0.6-1.6-1.8-2.3-3.6-2.3c-1.8,0-2.9,0.8-3.6,2.3
			c-0.3,0.9-0.5,2.5-0.5,4.6c0,2.1,0.2,3.7,0.5,4.6c0.6,1.6,1.8,2.4,3.6,2.4c1.8,0,2.9-0.8,3.6-2.4C127.9,91.3,128,89.7,128,87.6z"
			/>
		<path fill="#FFFFFF" d="M156.5,99.8H138v-4.6l10.8-14.2h-10.2v-5.5h17.9v4.6l-10.9,14.2h10.9L156.5,99.8L156.5,99.8z"/>
		<path fill="#FFFFFF" d="M156.5,127.5h-42.7v-6.1h42.7V127.5z"/>
		<path fill="#FFFFFF" d="M70,99.8h-5.9v-2.2c-1.6,1.7-3.6,2.5-6.1,2.5c-2.4,0-4.3-0.7-5.7-2.1c-1.6-1.7-2.5-4-2.5-6.9V75.5h6.1
			v14.7c0,1.5,0.4,2.7,1.3,3.4c0.7,0.7,1.6,1,2.7,1c1.1,0,2-0.3,2.7-1c0.9-0.8,1.3-1.9,1.3-3.4V75.5H70C70,75.5,70,99.8,70,99.8z"/>
		<path fill="#FFFFFF" d="M96,99.8h-6.1V85.1c0-1.5-0.4-2.7-1.3-3.5c-0.7-0.6-1.6-1-2.7-1c-1.1,0-2,0.3-2.7,1
			c-0.9,0.8-1.3,1.9-1.3,3.5v14.7h-6.1V75.5h5.9v2.2c1.6-1.7,3.6-2.5,6.1-2.5c2.4,0,4.3,0.7,5.7,2.1c1.6,1.6,2.5,3.9,2.5,6.9
			L96,99.8L96,99.8z"/>
		<path fill="#FFFFFF" d="M107.9,71.3h-6.1v-4.9h6.1C107.9,66.4,107.9,71.3,107.9,71.3z M107.9,99.8h-6.1V75.5h6.1
			C107.9,75.5,107.9,99.8,107.9,99.8z"/>
		<path fill="#FFFFFF" d="M134.1,87.6c0,2.5-0.1,4.4-0.3,5.6c-0.3,2-1.1,3.6-2.1,4.7c-1.5,1.5-3.4,2.2-5.9,2.2
			c-2.5,0-4.5-0.9-6.1-2.6v2.3h-5.9V66.5h6.1v11.1c1.5-1.6,3.4-2.4,5.9-2.4c2.5,0,4.4,0.7,5.9,2.2c1.1,1.1,1.8,2.6,2.1,4.7
			C134,83.3,134.1,85.1,134.1,87.6z M128,87.6c0-2.1-0.2-3.7-0.5-4.6c-0.6-1.6-1.8-2.3-3.6-2.3c-1.8,0-2.9,0.8-3.6,2.3
			c-0.3,0.9-0.5,2.5-0.5,4.6c0,2.1,0.2,3.7,0.5,4.6c0.6,1.6,1.8,2.4,3.6,2.4c1.8,0,2.9-0.8,3.6-2.4C127.9,91.3,128,89.7,128,87.6z"
			/>
		<path fill="#FFFFFF" d="M156.5,99.8H138v-4.6l10.8-14.2h-10.2v-5.5h17.9v4.6l-10.9,14.2h10.9L156.5,99.8L156.5,99.8z"/>
	</g>
	<g>
		<path fill="#FFFFFF" d="M201.7,45.1v4.2h6.8v3h-6.8v7h-3.3V42.2h11.3v3H201.7z"/>
		<path fill="#FFFFFF" d="M218.4,50.2c-0.5-0.5-0.9-0.7-1.7-0.7c-1,0-2,0.7-2,2.3v7.6h-3.1V46.8h3.1V48c0.6-0.7,1.8-1.3,3.2-1.3
			c1.2,0,2.1,0.3,3,1.2L218.4,50.2z"/>
		<path fill="#FFFFFF" d="M224.8,54c0,1.6,1,2.8,2.7,2.8c1.4,0,2-0.4,2.8-1.2l1.9,1.9c-1.3,1.3-2.5,2-4.8,2c-3,0-5.8-1.3-5.8-6.4
			c0-4.1,2.2-6.4,5.5-6.4c3.5,0,5.5,2.6,5.5,6V54H224.8z M229.3,50.5c-0.3-0.7-1-1.3-2.1-1.3c-1.1,0-1.8,0.6-2.1,1.3
			c-0.2,0.5-0.3,0.8-0.3,1.3h4.8C229.5,51.3,229.5,51,229.3,50.5z"/>
		<path fill="#FFFFFF" d="M235.3,44.6v-2.6h3.2v2.6H235.3z M235.3,59.3V46.8h3.1v12.5H235.3z"/>
		<path fill="#FFFFFF" d="M244.3,54c0,1.6,1,2.8,2.7,2.8c1.4,0,2-0.4,2.8-1.2l1.9,1.9c-1.3,1.3-2.5,2-4.8,2c-3,0-5.8-1.3-5.8-6.4
			c0-4.1,2.2-6.4,5.5-6.4c3.5,0,5.5,2.6,5.5,6V54H244.3z M248.7,50.5c-0.3-0.7-1-1.3-2.1-1.3c-1.1,0-1.8,0.6-2.1,1.3
			c-0.2,0.5-0.3,0.8-0.3,1.3h4.8C249,51.3,248.9,51,248.7,50.5z"/>
		<path fill="#FFFFFF" d="M266.9,59.5c-3.5,0-6.3-2.4-6.3-6V42.2h3.3v11.2c0,2,1.2,3.2,3,3.2c1.8,0,3-1.2,3-3.2V42.2h3.3v11.3
			C273.2,57.1,270.4,59.5,266.9,59.5z"/>
		<path fill="#FFFFFF" d="M283.8,59.3v-7.6c0-1.7-1.1-2.3-2.1-2.3c-1,0-2.1,0.6-2.1,2.3v7.6h-3.1V46.8h3.1v1.2
			c0.8-0.9,2-1.3,3.1-1.3c1.3,0,2.3,0.4,3,1.1c1,1,1.3,2.2,1.3,3.6v8L283.8,59.3L283.8,59.3z"/>
		<path fill="#FFFFFF" d="M290.1,44.6v-2.6h3.2v2.6H290.1z M290.2,59.3V46.8h3.1v12.5H290.2z"/>
		<path fill="#FFFFFF" d="M302.4,59.3h-2.5l-4.6-12.6h3.3l2.6,7.8l2.5-7.8h3.3L302.4,59.3z"/>
		<path fill="#FFFFFF" d="M311.1,54c0,1.6,1,2.8,2.7,2.8c1.4,0,2-0.4,2.8-1.2l1.9,1.9c-1.3,1.3-2.5,2-4.8,2c-3,0-5.8-1.3-5.8-6.4
			c0-4.1,2.2-6.4,5.5-6.4c3.5,0,5.5,2.6,5.5,6V54H311.1z M315.5,50.5c-0.3-0.7-1-1.3-2.1-1.3c-1.1,0-1.8,0.6-2.1,1.3
			c-0.2,0.5-0.3,0.8-0.3,1.3h4.8C315.8,51.3,315.7,51,315.5,50.5z"/>
		<path fill="#FFFFFF" d="M328.5,50.2c-0.5-0.5-0.9-0.7-1.7-0.7c-1,0-2,0.7-2,2.3v7.6h-3.1V46.8h3.1V48c0.6-0.7,1.8-1.3,3.2-1.3
			c1.2,0,2.1,0.3,3,1.2L328.5,50.2z"/>
		<path fill="#FFFFFF" d="M336.8,59.5c-2,0-3.8-0.2-5.3-1.8l2-2c1,1,2.4,1.2,3.3,1.2c1.1,0,2.2-0.4,2.2-1.3c0-0.6-0.3-1.1-1.3-1.2
			l-2-0.2c-2.3-0.2-3.7-1.2-3.7-3.5c0-2.6,2.3-4,4.8-4c2,0,3.6,0.3,4.8,1.5l-1.9,2c-0.7-0.7-1.8-0.8-2.9-0.8c-1.3,0-1.8,0.6-1.8,1.2
			c0,0.5,0.2,1,1.3,1.1l2,0.2c2.5,0.2,3.7,1.6,3.7,3.7C342.2,58.1,339.8,59.5,336.8,59.5z"/>
		<path fill="#FFFFFF" d="M344.6,44.6v-2.6h3.2v2.6H344.6z M344.7,59.3V46.8h3.1v12.5H344.7z"/>
		<path fill="#FFFFFF" d="M355.1,59.3c-2.6,0-3.6-1.8-3.6-3.6v-6.2h-1.3v-2.4h1.3v-3.7h3.1v3.7h2.2v2.4h-2.2v6
			c0,0.7,0.3,1.1,1.1,1.1h1.1v2.6L355.1,59.3L355.1,59.3z"/>
		<path fill="#FFFFFF" d="M366.2,59.3v-1.1c-0.8,0.8-1.6,1.2-3.1,1.2c-1.4,0-2.5-0.4-3.2-1.1c-0.7-0.7-1-1.7-1-2.8
			c0-2,1.4-3.6,4.3-3.6h3v-0.6c0-1.4-0.7-2-2.3-2c-1.2,0-1.8,0.3-2.4,1l-2-2c1.2-1.3,2.4-1.7,4.5-1.7c3.5,0,5.3,1.5,5.3,4.4v8.3
			L366.2,59.3L366.2,59.3z M360.3,44.7v-3h2.7v3H360.3z M366.1,54h-2.5c-1.1,0-1.8,0.5-1.8,1.4c0,0.9,0.6,1.4,1.8,1.4
			c0.9,0,1.4-0.1,2-0.6c0.3-0.3,0.5-0.8,0.5-1.6L366.1,54L366.1,54z M365.6,44.7v-3h2.7v3H365.6z"/>
		<path fill="#FFFFFF" d="M376.5,59.3c-2.6,0-3.6-1.8-3.6-3.6v-6.2h-1.3v-2.4h1.3v-3.7h3.1v3.7h2.2v2.4H376v6c0,0.7,0.3,1.1,1.1,1.1
			h1.1v2.6L376.5,59.3L376.5,59.3z"/>
		<path fill="#FFFFFF" d="M394,59.3h-7.2V42.2h6.9c3.3,0,5.3,1.9,5.3,4.8c0,1.9-1.3,3.1-2.1,3.5c1,0.5,2.4,1.6,2.4,3.9
			C399.3,57.6,397.1,59.3,394,59.3z M393.5,45.1h-3.3v4h3.3c1.4,0,2.2-0.8,2.2-2C395.7,45.9,394.9,45.1,393.5,45.1z M393.7,52.1
			h-3.5v4.2h3.5c1.5,0,2.2-1,2.2-2.1C395.9,53.1,395.2,52.1,393.7,52.1z"/>
		<path fill="#FFFFFF" d="M411,57.9c-0.8,0.8-2,1.5-3.9,1.5c-1.9,0-3.1-0.7-3.9-1.5c-1.1-1.2-1.4-2.6-1.4-4.9c0-2.3,0.3-3.7,1.4-4.9
			c0.8-0.8,2-1.5,3.9-1.5c1.9,0,3.1,0.7,3.9,1.5c1.1,1.2,1.4,2.6,1.4,4.9C412.4,55.3,412.1,56.7,411,57.9z M408.6,50
			c-0.4-0.4-0.8-0.6-1.5-0.6s-1.1,0.2-1.4,0.6c-0.7,0.7-0.7,1.7-0.7,3c0,1.3,0.1,2.4,0.7,3.1c0.4,0.4,0.8,0.6,1.4,0.6
			s1.1-0.2,1.5-0.6c0.7-0.7,0.7-1.8,0.7-3.1S409.2,50.6,408.6,50z"/>
		<path fill="#FFFFFF" d="M414.4,59.3v-2.4l5.6-7.3h-5.3v-2.8h9.3v2.4l-5.6,7.3h5.6v2.8H414.4z"/>
		<path fill="#FFFFFF" d="M429,54c0,1.6,1,2.8,2.7,2.8c1.4,0,2-0.4,2.8-1.2l1.9,1.9c-1.3,1.3-2.5,2-4.8,2c-3,0-5.8-1.3-5.8-6.4
			c0-4.1,2.2-6.4,5.5-6.4c3.5,0,5.5,2.6,5.5,6V54H429z M433.5,50.5c-0.3-0.7-1-1.3-2.1-1.3c-1.1,0-1.8,0.6-2.1,1.3
			c-0.2,0.5-0.3,0.8-0.3,1.3h4.8C433.7,51.3,433.7,51,433.5,50.5z"/>
		<path fill="#FFFFFF" d="M446.9,59.3v-7.6c0-1.7-1.1-2.3-2.1-2.3c-1,0-2.1,0.6-2.1,2.3v7.6h-3.1V46.8h3.1v1.2
			c0.8-0.9,2-1.3,3.1-1.3c1.3,0,2.3,0.4,3,1.1c1,1,1.3,2.2,1.3,3.6v8L446.9,59.3L446.9,59.3z"/>
		<path fill="#FFFFFF" d="M198.4,93.4V76.3h3.3v14.2h7.8v3H198.4z"/>
		<path fill="#FFFFFF" d="M211.9,78.7v-2.6h3.2v2.6H211.9z M211.9,93.4V80.9h3.1v12.5H211.9z"/>
		<path fill="#FFFFFF" d="M227.6,92.5c-0.7,0.7-1.8,1.1-3.1,1.1c-1.3,0-2.3-0.4-3.1-1.3v1.2h-3V76.3h3.1V82c0.8-0.9,1.8-1.3,3-1.3
			c1.2,0,2.4,0.4,3.1,1.1c1.3,1.3,1.3,3.4,1.3,5.3S228.8,91.2,227.6,92.5z M223.6,83.6c-1.9,0-2.1,1.5-2.1,3.6c0,2,0.2,3.6,2.1,3.6
			s2.1-1.6,2.1-3.6C225.7,85.1,225.5,83.6,223.6,83.6z"/>
		<path fill="#FFFFFF" d="M234.3,88.1c0,1.6,1,2.8,2.7,2.8c1.4,0,2-0.4,2.8-1.2l1.9,1.9c-1.3,1.3-2.5,2-4.8,2c-3,0-5.8-1.3-5.8-6.4
			c0-4.1,2.2-6.4,5.5-6.4c3.5,0,5.5,2.6,5.5,6v1.4C242.1,88.1,234.3,88.1,234.3,88.1z M238.8,84.6c-0.3-0.7-1-1.3-2.1-1.3
			c-1.1,0-1.8,0.6-2.1,1.3c-0.2,0.5-0.3,0.8-0.3,1.3h4.8C239,85.4,239,85.1,238.8,84.6z"/>
		<path fill="#FFFFFF" d="M251.7,84.3c-0.5-0.5-0.9-0.7-1.7-0.7c-1,0-2,0.7-2,2.3v7.6h-3.1V80.9h3.1v1.2c0.6-0.7,1.8-1.3,3.2-1.3
			c1.2,0,2.1,0.3,3,1.2L251.7,84.3z"/>
		<path fill="#FFFFFF" d="M262.7,93.4v-1.1c-0.8,0.8-1.6,1.2-3.1,1.2c-1.4,0-2.5-0.4-3.2-1.1c-0.7-0.7-1-1.7-1-2.8
			c0-2,1.4-3.6,4.3-3.6h3v-0.6c0-1.4-0.7-2-2.3-2c-1.2,0-1.8,0.3-2.4,1l-2-2c1.2-1.3,2.4-1.7,4.5-1.7c3.5,0,5.3,1.5,5.3,4.4v8.3
			L262.7,93.4L262.7,93.4z M262.6,88.1h-2.5c-1.1,0-1.8,0.5-1.8,1.4c0,0.9,0.6,1.4,1.8,1.4c0.9,0,1.4-0.1,2-0.6
			c0.3-0.3,0.5-0.8,0.5-1.6V88.1L262.6,88.1z"/>
		<path fill="#FFFFFF" d="M281,93.6c-3.5,0-6.3-2.4-6.3-6V76.3h3.3v11.2c0,2,1.2,3.2,3,3.2c1.8,0,3-1.2,3-3.2V76.3h3.3v11.3
			C287.3,91.2,284.5,93.6,281,93.6z"/>
		<path fill="#FFFFFF" d="M297.9,93.4v-7.6c0-1.7-1.1-2.3-2.1-2.3c-1,0-2.1,0.6-2.1,2.3v7.6h-3.1V80.9h3.1V82c0.8-0.9,2-1.3,3.1-1.3
			c1.3,0,2.3,0.4,3,1.1c1,1,1.3,2.2,1.3,3.6v8L297.9,93.4L297.9,93.4z"/>
		<path fill="#FFFFFF" d="M304.2,78.7v-2.6h3.2v2.6H304.2z M304.3,93.4V80.9h3.1v12.5H304.3z"/>
		<path fill="#FFFFFF" d="M316.5,93.4H314l-4.6-12.6h3.3l2.6,7.8l2.5-7.8h3.3L316.5,93.4z"/>
		<path fill="#FFFFFF" d="M325.2,88.1c0,1.6,1,2.8,2.7,2.8c1.4,0,2-0.4,2.8-1.2l1.9,1.9c-1.3,1.3-2.5,2-4.8,2c-3,0-5.8-1.3-5.8-6.4
			c0-4.1,2.2-6.4,5.5-6.4c3.5,0,5.5,2.6,5.5,6v1.4C333,88.1,325.2,88.1,325.2,88.1z M329.6,84.6c-0.3-0.7-1-1.3-2.1-1.3
			c-1.1,0-1.8,0.6-2.1,1.3c-0.2,0.5-0.3,0.8-0.3,1.3h4.8C329.9,85.4,329.8,85.1,329.6,84.6z"/>
		<path fill="#FFFFFF" d="M342.6,84.3c-0.5-0.5-0.9-0.7-1.7-0.7c-1,0-2,0.7-2,2.3v7.6h-3.1V80.9h3.1v1.2c0.6-0.7,1.8-1.3,3.2-1.3
			c1.2,0,2.1,0.3,3,1.2L342.6,84.3z"/>
		<path fill="#FFFFFF" d="M350.9,93.6c-2,0-3.8-0.2-5.3-1.8l2-2c1,1,2.4,1.2,3.3,1.2c1.1,0,2.2-0.4,2.2-1.3c0-0.6-0.3-1.1-1.3-1.2
			l-2-0.2c-2.3-0.2-3.7-1.2-3.7-3.5c0-2.6,2.3-4,4.8-4c2,0,3.6,0.3,4.8,1.5l-1.9,2c-0.7-0.7-1.8-0.8-2.9-0.8c-1.3,0-1.8,0.6-1.8,1.2
			c0,0.5,0.2,1,1.3,1.1l2,0.2c2.5,0.2,3.7,1.6,3.7,3.7C356.3,92.3,353.9,93.6,350.9,93.6z"/>
		<path fill="#FFFFFF" d="M358.7,78.7v-2.6h3.2v2.6H358.7z M358.8,93.4V80.9h3.1v12.5H358.8z"/>
		<path fill="#FFFFFF" d="M369.2,93.4c-2.6,0-3.6-1.8-3.6-3.6v-6.2h-1.3v-2.4h1.3v-3.7h3.1v3.7h2.2v2.4h-2.2v6
			c0,0.7,0.3,1.1,1.1,1.1h1.1v2.6L369.2,93.4L369.2,93.4z"/>
		<path fill="#FFFFFF" d="M380.3,93.4v-1.1c-0.8,0.8-1.6,1.2-3.1,1.2c-1.4,0-2.5-0.4-3.2-1.1c-0.7-0.7-1-1.7-1-2.8
			c0-2,1.4-3.6,4.3-3.6h3v-0.6c0-1.4-0.7-2-2.3-2c-1.2,0-1.8,0.3-2.4,1l-2-2c1.2-1.3,2.4-1.7,4.5-1.7c3.5,0,5.3,1.5,5.3,4.4v8.3
			L380.3,93.4L380.3,93.4z M377.6,78.9l-2.7-4.1h3.3l1.5,4.1H377.6z M380.2,88.1h-2.5c-1.1,0-1.8,0.5-1.8,1.4c0,0.9,0.6,1.4,1.8,1.4
			c0.9,0,1.4-0.1,2-0.6c0.3-0.3,0.5-0.8,0.5-1.6L380.2,88.1L380.2,88.1z"/>
		<path fill="#FFFFFF" d="M399.3,93.4v-1.2c-0.9,1-1.8,1.3-3.1,1.3c-1.2,0-2.4-0.4-3.1-1.1c-1.3-1.3-1.3-3.4-1.3-5.3s0-4,1.3-5.3
			c0.7-0.7,1.8-1.1,3.1-1.1c1.3,0,2.2,0.3,3.1,1.3v-5.7h3.1v17.2H399.3z M397,83.6c-1.9,0-2.1,1.5-2.1,3.6c0,2,0.2,3.6,2.1,3.6
			c1.9,0,2.1-1.6,2.1-3.6C399.2,85.1,398.9,83.6,397,83.6z"/>
		<path fill="#FFFFFF" d="M405.6,78.7v-2.6h3.2v2.6H405.6z M405.6,93.4V80.9h3.1v12.5H405.6z"/>
		<path fill="#FFFFFF" d="M425.3,93.4h-7.2V76.3h6.9c3.3,0,5.3,1.9,5.3,4.8c0,1.9-1.3,3.1-2.1,3.5c1,0.5,2.4,1.6,2.4,3.9
			C430.5,91.7,428.3,93.4,425.3,93.4z M424.7,79.3h-3.3v4h3.3c1.4,0,2.2-0.8,2.2-2C426.9,80.1,426.1,79.3,424.7,79.3z M424.9,86.2
			h-3.5v4.2h3.5c1.5,0,2.2-1,2.2-2.1C427.2,87.2,426.5,86.2,424.9,86.2z"/>
		<path fill="#FFFFFF" d="M442.3,92c-0.8,0.8-2,1.5-3.9,1.5c-1.9,0-3.1-0.7-3.9-1.5c-1.1-1.2-1.4-2.6-1.4-4.9c0-2.3,0.3-3.7,1.4-4.9
			c0.8-0.8,2-1.5,3.9-1.5c1.9,0,3.1,0.7,3.9,1.5c1.1,1.2,1.4,2.6,1.4,4.9C443.7,89.4,443.4,90.9,442.3,92z M439.8,84.1
			c-0.4-0.4-0.8-0.6-1.5-0.6s-1.1,0.2-1.4,0.6c-0.7,0.7-0.7,1.7-0.7,3s0.1,2.4,0.7,3.1c0.4,0.4,0.8,0.6,1.4,0.6s1.1-0.2,1.5-0.6
			c0.7-0.7,0.7-1.8,0.7-3.1C440.6,85.8,440.5,84.8,439.8,84.1z"/>
		<path fill="#FFFFFF" d="M450.1,93.4c-2.6,0-3.7-1.8-3.7-3.6V76.3h3.1v13.4c0,0.7,0.3,1.1,1.1,1.1h1.2v2.6H450.1z"/>
		<path fill="#FFFFFF" d="M453.8,93.4v-2.4l5.6-7.3h-5.3v-2.8h9.3v2.4l-5.6,7.3h5.6v2.8H453.8z"/>
		<path fill="#FFFFFF" d="M472.7,93.4v-1.1c-0.8,0.8-1.6,1.2-3.1,1.2c-1.4,0-2.5-0.4-3.2-1.1c-0.7-0.7-1-1.7-1-2.8
			c0-2,1.4-3.6,4.3-3.6h3v-0.6c0-1.4-0.7-2-2.3-2c-1.2,0-1.8,0.3-2.4,1l-2-2c1.2-1.3,2.4-1.7,4.5-1.7c3.5,0,5.3,1.5,5.3,4.4v8.3
			L472.7,93.4L472.7,93.4z M472.7,88.1h-2.5c-1.1,0-1.8,0.5-1.8,1.4c0,0.9,0.6,1.4,1.8,1.4c0.9,0,1.4-0.1,2-0.6
			c0.3-0.3,0.5-0.8,0.5-1.6L472.7,88.1L472.7,88.1z"/>
		<path fill="#FFFFFF" d="M486.3,93.4v-7.6c0-1.7-1.1-2.3-2.1-2.3c-1,0-2.1,0.6-2.1,2.3v7.6H479V80.9h3.1V82c0.8-0.9,2-1.3,3.1-1.3
			c1.3,0,2.3,0.4,3,1.1c1,1,1.3,2.2,1.3,3.6v8L486.3,93.4L486.3,93.4z"/>
		<path fill="#FFFFFF" d="M501.4,92c-0.8,0.8-2,1.5-3.9,1.5c-1.9,0-3.1-0.7-3.9-1.5c-1.1-1.2-1.4-2.6-1.4-4.9c0-2.3,0.3-3.7,1.4-4.9
			c0.8-0.8,2-1.5,3.9-1.5c1.9,0,3.1,0.7,3.9,1.5c1.1,1.2,1.4,2.6,1.4,4.9C502.8,89.4,502.5,90.9,501.4,92z M498.9,84.1
			c-0.4-0.4-0.8-0.6-1.5-0.6s-1.1,0.2-1.4,0.6c-0.7,0.7-0.7,1.7-0.7,3s0.1,2.4,0.7,3.1c0.4,0.4,0.8,0.6,1.4,0.6s1.1-0.2,1.5-0.6
			c0.7-0.7,0.7-1.8,0.7-3.1C499.7,85.8,499.6,84.8,498.9,84.1z"/>
		<path fill="#FFFFFF" d="M204.4,127.7c-3.5,0-6.3-2.4-6.3-6v-11.3h3.3v11.2c0,2,1.2,3.2,3,3.2c1.8,0,3-1.2,3-3.2v-11.2h3.3v11.3
			C210.7,125.3,207.9,127.7,204.4,127.7z"/>
		<path fill="#FFFFFF" d="M221.4,127.6V120c0-1.7-1.1-2.3-2.1-2.3c-1,0-2.1,0.6-2.1,2.3v7.6h-3.1V115h3.1v1.2c0.8-0.9,2-1.3,3.1-1.3
			c1.3,0,2.3,0.4,3,1.1c1,1,1.3,2.2,1.3,3.6v8H221.4z"/>
		<path fill="#FFFFFF" d="M227.7,112.9v-2.6h3.2v2.6H227.7z M227.7,127.6V115h3.1v12.6H227.7z"/>
		<path fill="#FFFFFF" d="M239.9,127.6h-2.5l-4.6-12.6h3.3l2.6,7.8l2.5-7.8h3.3L239.9,127.6z"/>
		<path fill="#FFFFFF" d="M248.6,122.3c0,1.6,1,2.8,2.7,2.8c1.4,0,2-0.4,2.8-1.2l1.9,1.9c-1.3,1.3-2.5,2-4.8,2c-3,0-5.8-1.3-5.8-6.4
			c0-4.1,2.2-6.4,5.5-6.4c3.5,0,5.5,2.6,5.5,6v1.4C256.5,122.3,248.6,122.3,248.6,122.3z M253.1,118.8c-0.3-0.7-1-1.3-2.1-1.3
			c-1.1,0-1.8,0.6-2.1,1.3c-0.2,0.5-0.3,0.8-0.3,1.3h4.8C253.4,119.6,253.3,119.2,253.1,118.8z"/>
		<path fill="#FFFFFF" d="M266,118.4c-0.5-0.5-0.9-0.7-1.7-0.7c-1,0-2,0.7-2,2.3v7.6h-3.1V115h3.1v1.2c0.6-0.7,1.8-1.3,3.2-1.3
			c1.2,0,2.1,0.3,3,1.2L266,118.4z"/>
		<path fill="#FFFFFF" d="M274.4,127.7c-2,0-3.8-0.2-5.3-1.8l2-2c1,1,2.4,1.2,3.3,1.2c1.1,0,2.2-0.4,2.2-1.3c0-0.6-0.3-1.1-1.3-1.2
			l-2-0.2c-2.3-0.2-3.7-1.2-3.7-3.5c0-2.6,2.3-4,4.8-4c2,0,3.6,0.3,4.8,1.5l-1.9,2c-0.7-0.7-1.8-0.8-2.9-0.8c-1.3,0-1.8,0.6-1.8,1.2
			c0,0.5,0.2,1,1.3,1.1l2,0.2c2.5,0.2,3.7,1.6,3.7,3.7C279.7,126.4,277.4,127.7,274.4,127.7z"/>
		<path fill="#FFFFFF" d="M282.2,112.9v-2.6h3.2v2.6H282.2z M282.2,127.6V115h3.1v12.6H282.2z"/>
		<path fill="#FFFFFF" d="M292.6,127.6c-2.6,0-3.6-1.8-3.6-3.6v-6.2h-1.3v-2.4h1.3v-3.7h3.1v3.7h2.2v2.4h-2.2v6
			c0,0.7,0.3,1.1,1.1,1.1h1.1v2.6L292.6,127.6L292.6,127.6z"/>
		<path fill="#FFFFFF" d="M303.8,127.6v-1.1c-0.8,0.8-1.6,1.2-3.1,1.2c-1.4,0-2.5-0.4-3.2-1.1c-0.7-0.7-1-1.7-1-2.8
			c0-2,1.4-3.6,4.3-3.6h3v-0.6c0-1.4-0.7-2-2.3-2c-1.2,0-1.8,0.3-2.4,1l-2-2c1.2-1.3,2.4-1.7,4.5-1.7c3.5,0,5.3,1.5,5.3,4.4v8.3
			H303.8z M301.1,113l-2.7-4.1h3.3l1.5,4.1H301.1z M303.7,122.3h-2.5c-1.1,0-1.8,0.5-1.8,1.4c0,0.9,0.6,1.4,1.8,1.4
			c0.9,0,1.4-0.1,2-0.6c0.3-0.3,0.5-0.8,0.5-1.6L303.7,122.3L303.7,122.3z"/>
		<path fill="#FFFFFF" d="M316,127.6v-17.2h3.3v14.2h7.8v3C327.1,127.6,316,127.6,316,127.6z"/>
		<path fill="#FFFFFF" d="M329.5,112.9v-2.6h3.2v2.6H329.5z M329.6,127.6V115h3.1v12.6H329.6z"/>
		<path fill="#FFFFFF" d="M338.5,122.3c0,1.6,1,2.8,2.7,2.8c1.4,0,2-0.4,2.8-1.2l1.9,1.9c-1.3,1.3-2.5,2-4.8,2c-3,0-5.8-1.3-5.8-6.4
			c0-4.1,2.2-6.4,5.5-6.4c3.5,0,5.5,2.6,5.5,6v1.4C346.4,122.3,338.5,122.3,338.5,122.3z M343,118.8c-0.3-0.7-1-1.3-2.1-1.3
			c-1.1,0-1.8,0.6-2.1,1.3c-0.2,0.5-0.3,0.8-0.3,1.3h4.8C343.2,119.6,343.2,119.2,343,118.8z"/>
		<path fill="#FFFFFF" d="M356.1,127.6v-1.2c-0.9,1-1.8,1.3-3.1,1.3c-1.2,0-2.4-0.4-3.1-1.1c-1.3-1.3-1.3-3.4-1.3-5.3
			c0-1.9,0-4,1.3-5.3c0.7-0.7,1.8-1.1,3.1-1.1c1.3,0,2.2,0.3,3.1,1.3v-5.7h3.1v17.2H356.1z M353.9,117.7c-1.9,0-2.1,1.5-2.1,3.6
			c0,2,0.2,3.6,2.1,3.6c1.9,0,2.1-1.6,2.1-3.6C356.1,119.2,355.8,117.7,353.9,117.7z"/>
		<path fill="#FFFFFF" d="M362.5,112.9v-2.6h3.2v2.6H362.5z M362.5,127.6V115h3.1v12.6H362.5z"/>
		<path fill="#FFFFFF" d="M375.4,127.6v-1.1c-0.8,0.8-1.6,1.2-3.1,1.2c-1.4,0-2.5-0.4-3.2-1.1c-0.7-0.7-1-1.7-1-2.8
			c0-2,1.4-3.6,4.3-3.6h3v-0.6c0-1.4-0.7-2-2.3-2c-1.2,0-1.8,0.3-2.4,1l-2-2c1.2-1.3,2.4-1.7,4.5-1.7c3.5,0,5.3,1.5,5.3,4.4v8.3
			H375.4z M375.4,122.3h-2.5c-1.1,0-1.8,0.5-1.8,1.4c0,0.9,0.6,1.4,1.8,1.4c0.9,0,1.4-0.1,2-0.6c0.3-0.3,0.5-0.8,0.5-1.6
			L375.4,122.3L375.4,122.3z"/>
		<path fill="#FFFFFF" d="M394.4,127.6v-1.2c-0.9,1-1.8,1.3-3.1,1.3c-1.2,0-2.4-0.4-3.1-1.1c-1.3-1.3-1.3-3.4-1.3-5.3
			c0-1.9,0-4,1.3-5.3c0.7-0.7,1.8-1.1,3.1-1.1c1.3,0,2.2,0.3,3.1,1.3v-5.7h3.1v17.2H394.4z M392.2,117.7c-1.9,0-2.1,1.5-2.1,3.6
			c0,2,0.2,3.6,2.1,3.6c1.9,0,2.1-1.6,2.1-3.6C394.3,119.2,394,117.7,392.2,117.7z"/>
		<path fill="#FFFFFF" d="M403.3,122.3c0,1.6,1,2.8,2.7,2.8c1.4,0,2-0.4,2.8-1.2l1.9,1.9c-1.3,1.3-2.5,2-4.8,2c-3,0-5.8-1.3-5.8-6.4
			c0-4.1,2.2-6.4,5.5-6.4c3.5,0,5.5,2.6,5.5,6v1.4C411.1,122.3,403.3,122.3,403.3,122.3z M407.7,118.8c-0.3-0.7-1-1.3-2.1-1.3
			c-1.1,0-1.8,0.6-2.1,1.3c-0.2,0.5-0.3,0.8-0.3,1.3h4.8C408,119.6,407.9,119.2,407.7,118.8z"/>
		<path fill="#FFFFFF" d="M427,127.6h-7.2v-17.2h6.9c3.3,0,5.3,1.9,5.3,4.8c0,1.9-1.3,3.1-2.1,3.5c1,0.5,2.4,1.6,2.4,3.9
			C432.3,125.8,430.1,127.6,427,127.6z M426.5,113.4h-3.3v4h3.3c1.4,0,2.2-0.8,2.2-2C428.7,114.2,427.9,113.4,426.5,113.4z
			 M426.7,120.4h-3.5v4.2h3.5c1.5,0,2.2-1,2.2-2.1C428.9,121.3,428.2,120.4,426.7,120.4z"/>
		<path fill="#FFFFFF" d="M442.5,127.6v-1.2c-0.8,0.9-2,1.3-3.1,1.3c-1.3,0-2.3-0.4-3-1.1c-1-1-1.3-2.2-1.3-3.6v-8h3.1v7.6
			c0,1.7,1.1,2.3,2.1,2.3c1,0,2.1-0.6,2.1-2.3V115h3.1v12.6C445.5,127.6,442.5,127.6,442.5,127.6z"/>
		<path fill="#FFFFFF" d="M452.4,127.6c-2.6,0-3.7-1.8-3.7-3.6v-13.6h3.1v13.4c0,0.7,0.3,1.1,1.1,1.1h1.2v2.6H452.4z"/>
		<path fill="#FFFFFF" d="M461.3,127.7c-2,0-3.8-0.2-5.3-1.8l2-2c1,1,2.4,1.2,3.3,1.2c1.1,0,2.2-0.4,2.2-1.3c0-0.6-0.3-1.1-1.3-1.2
			l-2-0.2c-2.3-0.2-3.7-1.2-3.7-3.5c0-2.6,2.3-4,4.8-4c2,0,3.6,0.3,4.8,1.5l-1.9,2c-0.7-0.7-1.8-0.8-2.9-0.8c-1.3,0-1.8,0.6-1.8,1.2
			c0,0.5,0.2,1,1.3,1.1l2,0.2c2.5,0.2,3.7,1.6,3.7,3.7C466.6,126.4,464.3,127.7,461.3,127.7z"/>
		<path fill="#FFFFFF" d="M476,127.6v-1.1c-0.8,0.8-1.6,1.2-3.1,1.2c-1.4,0-2.5-0.4-3.2-1.1c-0.7-0.7-1-1.7-1-2.8
			c0-2,1.4-3.6,4.3-3.6h3v-0.6c0-1.4-0.7-2-2.3-2c-1.2,0-1.8,0.3-2.4,1l-2-2c1.2-1.3,2.4-1.7,4.5-1.7c3.5,0,5.3,1.5,5.3,4.4v8.3H476
			z M475.9,122.3h-2.5c-1.1,0-1.8,0.5-1.8,1.4c0,0.9,0.6,1.4,1.8,1.4c0.9,0,1.4-0.1,2-0.6c0.3-0.3,0.5-0.8,0.5-1.6L475.9,122.3
			L475.9,122.3z"/>
		<path fill="#FFFFFF" d="M489.5,127.6V120c0-1.7-1.1-2.3-2.1-2.3c-1,0-2.1,0.6-2.1,2.3v7.6h-3.1V115h3.1v1.2c0.8-0.9,2-1.3,3.1-1.3
			c1.3,0,2.3,0.4,3,1.1c1,1,1.3,2.2,1.3,3.6v8H489.5z"/>
	</g>
</g>
</svg>
