<?xml version="1.0" encoding="utf-8"?>
<!-- Generator: Adobe Illustrator 18.0.0, SVG Export Plug-In . SVG Version: 6.00 Build 0)  -->
<!DOCTYPE svg PUBLIC "-//W3C//DTD SVG 1.1//EN" "http://www.w3.org/Graphics/SVG/1.1/DTD/svg11.dtd">
<svg version="1.1" id="Layer_1" xmlns="http://www.w3.org/2000/svg" xmlns:xlink="http://www.w3.org/1999/xlink" x="0px" y="0px"
	 viewBox="0 0 456.7 88.1" enable-background="new 0 0 456.7 88.1" xml:space="preserve">
<g>
	<path d="M108.3,7.1H65.8V1h42.5V7.1z"/>
	<path d="M22.2,58.4h-5.9v-2.2c-1.6,1.7-3.6,2.5-6,2.5c-2.4,0-4.3-0.7-5.7-2.1C2.9,54.9,2,52.6,2,49.7V34.2h6.1v14.7
		c0,1.5,0.4,2.7,1.3,3.4c0.7,0.7,1.6,1,2.7,1c1.1,0,2-0.3,2.7-1c0.9-0.8,1.3-1.9,1.3-3.4V34.2h6.1C22.2,34.2,22.2,58.4,22.2,58.4z"
		/>
	<path d="M48,58.4H42V43.8c0-1.5-0.4-2.7-1.3-3.4c-0.7-0.6-1.6-1-2.7-1c-1.1,0-2,0.3-2.7,1c-0.9,0.8-1.3,1.9-1.3,3.4v14.6h-6V34.2
		h5.9v2.2c1.6-1.7,3.6-2.5,6-2.5c2.4,0,4.3,0.7,5.7,2.1c1.6,1.6,2.5,3.9,2.5,6.9L48,58.4L48,58.4z"/>
	<path d="M60,30.1h-6.1v-4.9H60C60,25.2,60,30.1,60,30.1z M60,58.4h-6.1V34.2H60C60,34.2,60,58.4,60,58.4z"/>
	<path d="M86.1,46.3c0,2.5-0.1,4.3-0.3,5.6c-0.3,2-1.1,3.6-2.1,4.7c-1.5,1.5-3.4,2.2-5.9,2.2c-2.5,0-4.5-0.8-6-2.6v2.3h-5.9V25.3
		h6.1v11c1.5-1.6,3.4-2.4,5.8-2.4c2.5,0,4.4,0.7,5.9,2.2c1.1,1.1,1.8,2.6,2.1,4.6C86,42,86.1,43.8,86.1,46.3z M80,46.3
		c0-2.1-0.2-3.7-0.5-4.6c-0.6-1.6-1.8-2.3-3.5-2.3c-1.7,0-2.9,0.8-3.5,2.3c-0.3,0.9-0.5,2.5-0.5,4.6c0,2.1,0.2,3.7,0.5,4.6
		c0.6,1.6,1.8,2.4,3.5,2.4c1.7,0,2.9-0.8,3.5-2.4C79.8,50,80,48.4,80,46.3z"/>
	<path d="M108.3,58.4H89.9v-4.6l10.7-14.2H90.5v-5.4h17.8v4.6L97.5,53h10.9L108.3,58.4L108.3,58.4z"/>
	<path d="M108.3,86.1H65.8V80h42.5V86.1z"/>
	<path d="M22.2,58.4h-5.9v-2.2c-1.6,1.7-3.6,2.5-6,2.5c-2.4,0-4.3-0.7-5.7-2.1C2.9,54.9,2,52.6,2,49.7V34.2h6.1v14.7
		c0,1.5,0.4,2.7,1.3,3.4c0.7,0.7,1.6,1,2.7,1c1.1,0,2-0.3,2.7-1c0.9-0.8,1.3-1.9,1.3-3.4V34.2h6.1C22.2,34.2,22.2,58.4,22.2,58.4z"
		/>
	<path d="M48,58.4H42V43.8c0-1.5-0.4-2.7-1.3-3.4c-0.7-0.6-1.6-1-2.7-1c-1.1,0-2,0.3-2.7,1c-0.9,0.8-1.3,1.9-1.3,3.4v14.6h-6V34.2
		h5.9v2.2c1.6-1.7,3.6-2.5,6-2.5c2.4,0,4.3,0.7,5.7,2.1c1.6,1.6,2.5,3.9,2.5,6.9L48,58.4L48,58.4z"/>
	<path d="M60,30.1h-6.1v-4.9H60C60,25.2,60,30.1,60,30.1z M60,58.4h-6.1V34.2H60C60,34.2,60,58.4,60,58.4z"/>
	<path d="M86.1,46.3c0,2.5-0.1,4.3-0.3,5.6c-0.3,2-1.1,3.6-2.1,4.7c-1.5,1.5-3.4,2.2-5.9,2.2c-2.5,0-4.5-0.8-6-2.6v2.3h-5.9V25.3
		h6.1v11c1.5-1.6,3.4-2.4,5.8-2.4c2.5,0,4.4,0.7,5.9,2.2c1.1,1.1,1.8,2.6,2.1,4.6C86,42,86.1,43.8,86.1,46.3z M80,46.3
		c0-2.1-0.2-3.7-0.5-4.6c-0.6-1.6-1.8-2.3-3.5-2.3c-1.7,0-2.9,0.8-3.5,2.3c-0.3,0.9-0.5,2.5-0.5,4.6c0,2.1,0.2,3.7,0.5,4.6
		c0.6,1.6,1.8,2.4,3.5,2.4c1.7,0,2.9-0.8,3.5-2.4C79.8,50,80,48.4,80,46.3z"/>
	<path d="M108.3,58.4H89.9v-4.6l10.7-14.2H90.5v-5.4h17.8v4.6L97.5,53h10.9L108.3,58.4L108.3,58.4z"/>
	<g>
		<path d="M154.2,4v4.2h6.7v3h-6.7v6.9h-3.3V1h11.3v3H154.2z"/>
		<path d="M170.8,9c-0.5-0.5-0.9-0.7-1.7-0.7c-1,0-2,0.7-2,2.3v7.5H164V5.6h3v1.2c0.6-0.7,1.8-1.3,3.1-1.3c1.2,0,2.1,0.3,3,1.2
			L170.8,9z"/>
		<path d="M177.2,12.8c0,1.6,1,2.8,2.7,2.8c1.4,0,2-0.4,2.8-1.2l1.9,1.8c-1.3,1.3-2.5,2-4.8,2c-3,0-5.8-1.3-5.8-6.4
			c0-4.1,2.2-6.4,5.4-6.4c3.5,0,5.4,2.5,5.4,6v1.4H177.2z M181.6,9.3c-0.3-0.7-1-1.3-2.1-1.3c-1.1,0-1.8,0.6-2.1,1.3
			c-0.2,0.5-0.3,0.8-0.3,1.3h4.8C181.9,10.1,181.8,9.8,181.6,9.3z"/>
		<path d="M187.6,3.5V0.9h3.2v2.5H187.6z M187.7,18.1V5.6h3.1v12.5H187.7z"/>
		<path d="M196.6,12.8c0,1.6,1,2.8,2.7,2.8c1.4,0,2-0.4,2.8-1.2l1.9,1.8c-1.3,1.3-2.5,2-4.8,2c-3,0-5.8-1.3-5.8-6.4
			c0-4.1,2.2-6.4,5.4-6.4c3.5,0,5.4,2.5,5.4,6v1.4H196.6z M201,9.3c-0.3-0.7-1-1.3-2.1-1.3c-1.1,0-1.8,0.6-2.1,1.3
			c-0.2,0.5-0.3,0.8-0.3,1.3h4.8C201.3,10.1,201.2,9.8,201,9.3z"/>
		<path d="M219.1,18.3c-3.5,0-6.3-2.4-6.3-6V1h3.3v11.1c0,2,1.2,3.1,3,3.1s3-1.2,3-3.1V1h3.3v11.2C225.4,15.9,222.6,18.3,219.1,18.3
			z"/>
		<path d="M236,18.1v-7.6c0-1.7-1.1-2.3-2.1-2.3c-1,0-2.1,0.6-2.1,2.3v7.6h-3.1V5.6h3v1.2c0.8-0.9,2-1.3,3.1-1.3
			c1.2,0,2.3,0.4,3,1.1c1,1,1.3,2.2,1.3,3.6v8L236,18.1L236,18.1z"/>
		<path d="M242.3,3.5V0.9h3.2v2.5H242.3z M242.3,18.1V5.6h3.1v12.5H242.3z"/>
		<path d="M254.5,18.1h-2.4l-4.6-12.5h3.3l2.5,7.7l2.5-7.7h3.3L254.5,18.1z"/>
		<path d="M263.1,12.8c0,1.6,1,2.8,2.7,2.8c1.4,0,2-0.4,2.8-1.2l1.9,1.8c-1.3,1.3-2.5,2-4.8,2c-3,0-5.8-1.3-5.8-6.4
			c0-4.1,2.2-6.4,5.4-6.4c3.5,0,5.4,2.5,5.4,6v1.4H263.1z M267.6,9.3c-0.3-0.7-1-1.3-2.1-1.3c-1.1,0-1.8,0.6-2.1,1.3
			c-0.2,0.5-0.3,0.8-0.3,1.3h4.8C267.9,10.1,267.8,9.8,267.6,9.3z"/>
		<path d="M280.5,9c-0.5-0.5-0.9-0.7-1.7-0.7c-1,0-2,0.7-2,2.3v7.5h-3.1V5.6h3v1.2c0.6-0.7,1.8-1.3,3.1-1.3c1.2,0,2.1,0.3,3,1.2
			L280.5,9z"/>
		<path d="M288.8,18.3c-2,0-3.7-0.2-5.3-1.8l2-2c1,1,2.4,1.2,3.3,1.2c1.1,0,2.2-0.4,2.2-1.3c0-0.6-0.3-1.1-1.3-1.2l-2-0.2
			c-2.3-0.2-3.6-1.2-3.6-3.5c0-2.6,2.3-4,4.8-4c1.9,0,3.6,0.3,4.8,1.5l-1.9,1.9C291.1,8.2,290,8,288.9,8c-1.2,0-1.8,0.6-1.8,1.2
			c0,0.5,0.2,1,1.3,1.1l2,0.2c2.5,0.2,3.7,1.6,3.7,3.7C294.1,16.9,291.8,18.3,288.8,18.3z"/>
		<path d="M296.6,3.5V0.9h3.2v2.5H296.6z M296.6,18.1V5.6h3.1v12.5H296.6z"/>
		<path d="M307,18.1c-2.5,0-3.6-1.8-3.6-3.6V8.3h-1.3V6h1.3V2.3h3.1V6h2.2v2.4h-2.2v6c0,0.7,0.3,1.1,1.1,1.1h1.1v2.6L307,18.1
			L307,18.1z"/>
		<path d="M318.1,18.1V17c-0.8,0.8-1.6,1.2-3.1,1.2c-1.4,0-2.4-0.4-3.2-1.1c-0.7-0.7-1-1.7-1-2.8c0-2,1.4-3.6,4.3-3.6h3v-0.6
			c0-1.4-0.7-2-2.3-2c-1.2,0-1.8,0.3-2.4,1l-2-1.9c1.2-1.3,2.4-1.7,4.5-1.7c3.5,0,5.3,1.5,5.3,4.4v8.2L318.1,18.1L318.1,18.1z
			 M312.2,3.6v-3h2.7v3H312.2z M318,12.8h-2.5c-1.1,0-1.8,0.5-1.8,1.4c0,0.9,0.6,1.4,1.8,1.4c0.9,0,1.4-0.1,2-0.6
			c0.3-0.3,0.5-0.8,0.5-1.6L318,12.8L318,12.8z M317.5,3.6v-3h2.7v3H317.5z"/>
		<path d="M328.3,18.1c-2.5,0-3.6-1.8-3.6-3.6V8.3h-1.3V6h1.3V2.3h3.1V6h2.2v2.4h-2.2v6c0,0.7,0.3,1.1,1.1,1.1h1.1v2.6L328.3,18.1
			L328.3,18.1z"/>
		<path d="M345.8,18.1h-7.2V1h6.9c3.3,0,5.3,1.9,5.3,4.8c0,1.9-1.2,3.1-2.1,3.5c1,0.5,2.4,1.6,2.4,3.8
			C351,16.4,348.9,18.1,345.8,18.1z M345.3,4H342v3.9h3.3c1.4,0,2.2-0.8,2.2-2S346.7,4,345.3,4z M345.5,10.9H342v4.2h3.5
			c1.5,0,2.2-1,2.2-2.1C347.7,11.9,347,10.9,345.5,10.9z"/>
		<path d="M362.7,16.7c-0.8,0.8-2,1.5-3.9,1.5c-1.8,0-3.1-0.7-3.9-1.5c-1.1-1.2-1.4-2.6-1.4-4.9c0-2.3,0.3-3.7,1.4-4.8
			c0.8-0.8,2-1.5,3.9-1.5c1.8,0,3.1,0.7,3.9,1.5c1.1,1.2,1.4,2.6,1.4,4.8C364.1,14.1,363.9,15.5,362.7,16.7z M360.3,8.8
			c-0.4-0.4-0.8-0.6-1.5-0.6s-1.1,0.2-1.4,0.6c-0.6,0.6-0.7,1.7-0.7,3c0,1.3,0.1,2.4,0.7,3c0.4,0.4,0.8,0.6,1.4,0.6s1.1-0.2,1.5-0.6
			c0.6-0.6,0.7-1.8,0.7-3S361,9.5,360.3,8.8z"/>
		<path d="M366.1,18.1v-2.4l5.5-7.3h-5.2V5.6h9.2V8l-5.6,7.3h5.6v2.8H366.1z"/>
		<path d="M380.6,12.8c0,1.6,1,2.8,2.7,2.8c1.4,0,2-0.4,2.8-1.2l1.9,1.8c-1.3,1.3-2.5,2-4.8,2c-3,0-5.8-1.3-5.8-6.4
			c0-4.1,2.2-6.4,5.4-6.4c3.5,0,5.4,2.5,5.4,6v1.4H380.6z M385.1,9.3c-0.3-0.7-1-1.3-2.1-1.3c-1.1,0-1.8,0.6-2.1,1.3
			c-0.2,0.5-0.3,0.8-0.3,1.3h4.8C385.4,10.1,385.3,9.8,385.1,9.3z"/>
		<path d="M398.5,18.1v-7.6c0-1.7-1.1-2.3-2.1-2.3c-1,0-2.1,0.6-2.1,2.3v7.6h-3.1V5.6h3v1.2c0.8-0.9,2-1.3,3.1-1.3
			c1.2,0,2.3,0.4,3,1.1c1,1,1.3,2.2,1.3,3.6v8L398.5,18.1L398.5,18.1z"/>
		<path d="M150.9,52.1V35h3.3v14.1h7.8v3H150.9z"/>
		<path d="M164.3,37.5v-2.5h3.2v2.5H164.3z M164.4,52.1V39.6h3.1v12.5H164.4z"/>
		<path d="M180,51.1c-0.7,0.7-1.8,1.1-3,1.1c-1.3,0-2.3-0.4-3.1-1.3v1.2h-3V35h3.1v5.7c0.8-0.9,1.8-1.2,3-1.2c1.2,0,2.4,0.4,3,1.1
			c1.2,1.2,1.3,3.4,1.3,5.3S181.2,49.9,180,51.1z M176,42.3c-1.9,0-2.1,1.5-2.1,3.6s0.2,3.6,2.1,3.6s2.1-1.6,2.1-3.6
			S177.9,42.3,176,42.3z"/>
		<path d="M186.6,46.8c0,1.6,1,2.8,2.7,2.8c1.4,0,2-0.4,2.8-1.2l1.9,1.8c-1.3,1.3-2.5,2-4.8,2c-3,0-5.8-1.3-5.8-6.4
			c0-4.1,2.2-6.4,5.4-6.4c3.5,0,5.4,2.5,5.4,6v1.4C194.5,46.8,186.6,46.8,186.6,46.8z M191.1,43.3c-0.3-0.7-1-1.3-2.1-1.3
			c-1.1,0-1.8,0.6-2.1,1.3c-0.2,0.5-0.3,0.8-0.3,1.3h4.8C191.4,44.1,191.3,43.8,191.1,43.3z"/>
		<path d="M204,43c-0.5-0.5-0.9-0.7-1.7-0.7c-1,0-2,0.7-2,2.3v7.5h-3.1V39.6h3v1.2c0.6-0.7,1.8-1.3,3.1-1.3c1.2,0,2.1,0.3,3,1.2
			L204,43z"/>
		<path d="M214.9,52.1V51c-0.8,0.8-1.6,1.2-3.1,1.2c-1.4,0-2.4-0.4-3.2-1.1c-0.7-0.7-1-1.7-1-2.8c0-2,1.4-3.6,4.3-3.6h3v-0.6
			c0-1.4-0.7-2-2.3-2c-1.2,0-1.8,0.3-2.4,1l-2-1.9c1.2-1.3,2.4-1.7,4.5-1.7c3.5,0,5.3,1.5,5.3,4.4v8.2L214.9,52.1L214.9,52.1z
			 M214.9,46.8h-2.5c-1.1,0-1.8,0.5-1.8,1.4c0,0.9,0.6,1.4,1.8,1.4c0.9,0,1.4-0.1,2-0.6c0.3-0.3,0.5-0.8,0.5-1.6L214.9,46.8
			L214.9,46.8z"/>
		<path d="M233.2,52.3c-3.5,0-6.3-2.4-6.3-6V35h3.3v11.1c0,2,1.2,3.1,3,3.1s3-1.2,3-3.1V35h3.3v11.2
			C239.5,49.9,236.7,52.3,233.2,52.3z"/>
		<path d="M250,52.1v-7.6c0-1.7-1.1-2.3-2.1-2.3c-1,0-2.1,0.6-2.1,2.3v7.6h-3.1V39.6h3v1.2c0.8-0.9,2-1.3,3.1-1.3
			c1.2,0,2.3,0.4,3,1.1c1,1,1.3,2.2,1.3,3.6v8L250,52.1L250,52.1z"/>
		<path d="M256.3,37.5v-2.5h3.2v2.5H256.3z M256.4,52.1V39.6h3.1v12.5H256.4z"/>
		<path d="M268.6,52.1h-2.4l-4.6-12.5h3.3l2.5,7.7l2.5-7.7h3.3L268.6,52.1z"/>
		<path d="M277.2,46.8c0,1.6,1,2.8,2.7,2.8c1.4,0,2-0.4,2.8-1.2l1.9,1.8c-1.3,1.3-2.5,2-4.8,2c-3,0-5.8-1.3-5.8-6.4
			c0-4.1,2.2-6.4,5.4-6.4c3.5,0,5.4,2.5,5.4,6v1.4C285,46.8,277.2,46.8,277.2,46.8z M281.7,43.3c-0.3-0.7-1-1.3-2.1-1.3
			c-1.1,0-1.8,0.6-2.1,1.3c-0.2,0.5-0.3,0.8-0.3,1.3h4.8C281.9,44.1,281.8,43.8,281.7,43.3z"/>
		<path d="M294.5,43c-0.5-0.5-0.9-0.7-1.7-0.7c-1,0-2,0.7-2,2.3v7.5h-3.1V39.6h3v1.2c0.6-0.7,1.8-1.3,3.1-1.3c1.2,0,2.1,0.3,3,1.2
			L294.5,43z"/>
		<path d="M302.9,52.3c-2,0-3.7-0.2-5.3-1.8l2-2c1,1,2.4,1.2,3.3,1.2c1.1,0,2.2-0.4,2.2-1.3c0-0.6-0.3-1.1-1.3-1.2l-2-0.2
			c-2.3-0.2-3.6-1.2-3.6-3.5c0-2.6,2.3-4,4.8-4c1.9,0,3.6,0.3,4.8,1.5l-1.9,1.9c-0.7-0.6-1.8-0.8-2.9-0.8c-1.2,0-1.8,0.6-1.8,1.2
			c0,0.5,0.2,1,1.3,1.1l2,0.2c2.5,0.2,3.7,1.6,3.7,3.7C308.2,50.9,305.8,52.3,302.9,52.3z"/>
		<path d="M310.6,37.5v-2.5h3.2v2.5H310.6z M310.7,52.1V39.6h3.1v12.5H310.7z"/>
		<path d="M321.1,52.1c-2.5,0-3.6-1.8-3.6-3.6v-6.2h-1.3V40h1.3v-3.7h3.1V40h2.2v2.4h-2.2v6c0,0.7,0.3,1.1,1.1,1.1h1.1v2.6
			L321.1,52.1L321.1,52.1z"/>
		<path d="M332.1,52.1V51c-0.8,0.8-1.6,1.2-3.1,1.2c-1.4,0-2.4-0.4-3.2-1.1c-0.7-0.7-1-1.7-1-2.8c0-2,1.4-3.6,4.3-3.6h3v-0.6
			c0-1.4-0.7-2-2.3-2c-1.2,0-1.8,0.3-2.4,1l-2-1.9c1.2-1.3,2.4-1.7,4.5-1.7c3.5,0,5.3,1.5,5.3,4.4v8.2L332.1,52.1L332.1,52.1z
			 M329.5,37.6l-2.7-4.1h3.3l1.5,4.1H329.5z M332.1,46.8h-2.5c-1.1,0-1.8,0.5-1.8,1.4c0,0.9,0.6,1.4,1.8,1.4c0.9,0,1.4-0.1,2-0.6
			c0.3-0.3,0.5-0.8,0.5-1.6L332.1,46.8L332.1,46.8z"/>
		<path d="M351,52.1v-1.2c-0.9,1-1.8,1.3-3.1,1.3c-1.2,0-2.4-0.4-3.1-1.1c-1.2-1.2-1.3-3.4-1.3-5.3s0-4,1.3-5.3
			c0.7-0.7,1.8-1.1,3-1.1c1.3,0,2.2,0.3,3,1.2V35h3.1v17.1H351z M348.8,42.3c-1.9,0-2.1,1.5-2.1,3.6s0.2,3.6,2.1,3.6
			c1.9,0,2.1-1.6,2.1-3.6S350.7,42.3,348.8,42.3z"/>
		<path d="M357.3,37.5v-2.5h3.2v2.5H357.3z M357.4,52.1V39.6h3.1v12.5H357.4z"/>
		<path d="M376.9,52.1h-7.2V35h6.9c3.3,0,5.3,1.9,5.3,4.8c0,1.9-1.2,3.1-2.1,3.5c1,0.5,2.4,1.6,2.4,3.8
			C382.2,50.4,380,52.1,376.9,52.1z M376.4,38h-3.3v3.9h3.3c1.4,0,2.2-0.8,2.2-2S377.8,38,376.4,38z M376.6,44.9h-3.5v4.2h3.5
			c1.5,0,2.2-1,2.2-2.1C378.8,45.9,378.1,44.9,376.6,44.9z"/>
		<path d="M393.9,50.7c-0.8,0.8-2,1.5-3.9,1.5c-1.8,0-3.1-0.7-3.9-1.5c-1.1-1.2-1.4-2.6-1.4-4.9c0-2.3,0.3-3.7,1.4-4.8
			c0.8-0.8,2-1.5,3.9-1.5c1.8,0,3.1,0.7,3.9,1.5c1.1,1.2,1.4,2.6,1.4,4.8C395.3,48.1,395,49.5,393.9,50.7z M391.4,42.8
			c-0.4-0.4-0.8-0.6-1.5-0.6s-1.1,0.2-1.4,0.6c-0.6,0.6-0.7,1.7-0.7,3c0,1.3,0.1,2.4,0.7,3c0.4,0.4,0.8,0.6,1.4,0.6s1.1-0.2,1.5-0.6
			c0.6-0.6,0.7-1.8,0.7-3S392.1,43.5,391.4,42.8z"/>
		<path d="M401.6,52.1c-2.6,0-3.6-1.8-3.6-3.6V35h3.1v13.3c0,0.7,0.3,1.1,1.1,1.1h1.2v2.6H401.6z"/>
		<path d="M405.4,52.1v-2.4l5.5-7.3h-5.2v-2.8h9.2V42l-5.6,7.3h5.6v2.8H405.4z"/>
		<path d="M424.2,52.1V51c-0.8,0.8-1.6,1.2-3.1,1.2c-1.4,0-2.4-0.4-3.2-1.1c-0.7-0.7-1-1.7-1-2.8c0-2,1.4-3.6,4.3-3.6h3v-0.6
			c0-1.4-0.7-2-2.3-2c-1.2,0-1.8,0.3-2.4,1l-2-1.9c1.2-1.3,2.4-1.7,4.5-1.7c3.5,0,5.3,1.5,5.3,4.4v8.2L424.2,52.1L424.2,52.1z
			 M424.2,46.8h-2.5c-1.1,0-1.8,0.5-1.8,1.4c0,0.9,0.6,1.4,1.8,1.4c0.9,0,1.4-0.1,2-0.6c0.3-0.3,0.5-0.8,0.5-1.6L424.2,46.8
			L424.2,46.8z"/>
		<path d="M437.8,52.1v-7.6c0-1.7-1.1-2.3-2.1-2.3c-1,0-2.1,0.6-2.1,2.3v7.6h-3.1V39.6h3v1.2c0.8-0.9,2-1.3,3.1-1.3
			c1.2,0,2.3,0.4,3,1.1c1,1,1.3,2.2,1.3,3.6v8L437.8,52.1L437.8,52.1z"/>
		<path d="M452.8,50.7c-0.8,0.8-2,1.5-3.9,1.5c-1.8,0-3.1-0.7-3.9-1.5c-1.1-1.2-1.4-2.6-1.4-4.9c0-2.3,0.3-3.7,1.4-4.8
			c0.8-0.8,2-1.5,3.9-1.5c1.8,0,3.1,0.7,3.9,1.5c1.1,1.2,1.4,2.6,1.4,4.8C454.2,48.1,453.9,49.5,452.8,50.7z M450.3,42.8
			c-0.4-0.4-0.8-0.6-1.5-0.6s-1.1,0.2-1.4,0.6c-0.6,0.6-0.7,1.7-0.7,3c0,1.3,0.1,2.4,0.7,3c0.4,0.4,0.8,0.6,1.4,0.6s1.1-0.2,1.5-0.6
			c0.6-0.6,0.7-1.8,0.7-3S451,43.5,450.3,42.8z"/>
		<path d="M156.9,86.3c-3.5,0-6.3-2.4-6.3-6V69h3.3v11.1c0,2,1.2,3.1,3,3.1s3-1.2,3-3.1V69h3.3v11.2
			C163.2,83.9,160.4,86.3,156.9,86.3z"/>
		<path d="M173.8,86.1v-7.6c0-1.7-1.1-2.3-2.1-2.3c-1,0-2.1,0.6-2.1,2.3v7.6h-3.1V73.6h3v1.2c0.8-0.9,2-1.3,3.1-1.3
			c1.2,0,2.3,0.4,3,1.1c1,1,1.3,2.2,1.3,3.6v8H173.8z"/>
		<path d="M180,71.5v-2.5h3.2v2.5H180z M180.1,86.1V73.6h3.1v12.5H180.1z"/>
		<path d="M192.3,86.1h-2.4l-4.6-12.5h3.3l2.5,7.7l2.5-7.7h3.3L192.3,86.1z"/>
		<path d="M200.9,80.8c0,1.6,1,2.8,2.7,2.8c1.4,0,2-0.4,2.8-1.2l1.9,1.8c-1.3,1.3-2.5,2-4.8,2c-3,0-5.8-1.3-5.8-6.4
			c0-4.1,2.2-6.4,5.4-6.4c3.5,0,5.4,2.5,5.4,6v1.4C208.7,80.8,200.9,80.8,200.9,80.8z M205.4,77.3c-0.3-0.7-1-1.3-2.1-1.3
			c-1.1,0-1.8,0.6-2.1,1.3c-0.2,0.5-0.3,0.8-0.3,1.3h4.8C205.6,78.1,205.6,77.8,205.4,77.3z"/>
		<path d="M218.3,77c-0.5-0.5-0.9-0.7-1.7-0.7c-1,0-2,0.7-2,2.3v7.5h-3.1V73.6h3v1.2c0.6-0.7,1.8-1.3,3.1-1.3c1.2,0,2.1,0.3,3,1.2
			L218.3,77z"/>
		<path d="M226.6,86.3c-2,0-3.7-0.2-5.3-1.8l2-2c1,1,2.4,1.2,3.3,1.2c1.1,0,2.2-0.4,2.2-1.3c0-0.6-0.3-1.1-1.3-1.2l-2-0.2
			c-2.3-0.2-3.6-1.2-3.6-3.5c0-2.6,2.3-4,4.8-4c1.9,0,3.6,0.3,4.8,1.5l-1.9,1.9c-0.7-0.6-1.8-0.8-2.9-0.8c-1.2,0-1.8,0.6-1.8,1.2
			c0,0.5,0.2,1,1.3,1.1l2,0.2c2.5,0.2,3.7,1.6,3.7,3.7C231.9,84.9,229.6,86.3,226.6,86.3z"/>
		<path d="M234.4,71.5v-2.5h3.2v2.5H234.4z M234.4,86.1V73.6h3.1v12.5H234.4z"/>
		<path d="M244.8,86.1c-2.5,0-3.6-1.8-3.6-3.6v-6.2h-1.3V74h1.3v-3.7h3.1V74h2.2v2.4h-2.2v6c0,0.7,0.3,1.1,1.1,1.1h1.1v2.6
			L244.8,86.1L244.8,86.1z"/>
		<path d="M255.9,86.1V85c-0.8,0.8-1.6,1.2-3.1,1.2c-1.4,0-2.4-0.4-3.2-1.1c-0.7-0.7-1-1.7-1-2.8c0-2,1.4-3.6,4.3-3.6h3v-0.6
			c0-1.4-0.7-2-2.3-2c-1.2,0-1.8,0.3-2.4,1l-2-1.9c1.2-1.3,2.4-1.7,4.5-1.7c3.5,0,5.3,1.5,5.3,4.4v8.2H255.9z M253.2,71.6l-2.7-4.1
			h3.3l1.5,4.1H253.2z M255.8,80.8h-2.5c-1.1,0-1.8,0.5-1.8,1.4c0,0.9,0.6,1.4,1.8,1.4c0.9,0,1.4-0.1,2-0.6c0.3-0.3,0.5-0.8,0.5-1.6
			L255.8,80.8L255.8,80.8z"/>
		<path d="M268.1,86.1V69h3.3v14.1h7.8v3C279.2,86.1,268.1,86.1,268.1,86.1z"/>
		<path d="M281.5,71.5v-2.5h3.2v2.5H281.5z M281.6,86.1V73.6h3.1v12.5H281.6z"/>
		<path d="M290.5,80.8c0,1.6,1,2.8,2.7,2.8c1.4,0,2-0.4,2.8-1.2l1.9,1.8c-1.3,1.3-2.5,2-4.8,2c-3,0-5.8-1.3-5.8-6.4
			c0-4.1,2.2-6.4,5.4-6.4c3.5,0,5.4,2.5,5.4,6v1.4C298.3,80.8,290.5,80.8,290.5,80.8z M294.9,77.3c-0.3-0.7-1-1.3-2.1-1.3
			c-1.1,0-1.8,0.6-2.1,1.3c-0.2,0.5-0.3,0.8-0.3,1.3h4.8C295.2,78.1,295.1,77.8,294.9,77.3z"/>
		<path d="M308,86.1v-1.2c-0.9,1-1.8,1.3-3.1,1.3c-1.2,0-2.4-0.4-3.1-1.1c-1.2-1.2-1.3-3.4-1.3-5.3s0-4,1.3-5.3
			c0.7-0.7,1.8-1.1,3-1.1c1.3,0,2.2,0.3,3,1.2V69h3.1v17.1H308z M305.8,76.3c-1.9,0-2.1,1.5-2.1,3.6s0.2,3.6,2.1,3.6
			c1.9,0,2.1-1.6,2.1-3.6S307.7,76.3,305.8,76.3z"/>
		<path d="M314.4,71.5v-2.5h3.2v2.5H314.4z M314.4,86.1V73.6h3.1v12.5H314.4z"/>
		<path d="M327.3,86.1V85c-0.8,0.8-1.6,1.2-3.1,1.2c-1.4,0-2.4-0.4-3.2-1.1c-0.7-0.7-1-1.7-1-2.8c0-2,1.4-3.6,4.3-3.6h3v-0.6
			c0-1.4-0.7-2-2.3-2c-1.2,0-1.8,0.3-2.4,1l-2-1.9c1.2-1.3,2.4-1.7,4.5-1.7c3.5,0,5.3,1.5,5.3,4.4v8.2H327.3z M327.2,80.8h-2.5
			c-1.1,0-1.8,0.5-1.8,1.4c0,0.9,0.6,1.4,1.8,1.4c0.9,0,1.4-0.1,2-0.6c0.3-0.3,0.5-0.8,0.5-1.6L327.2,80.8L327.2,80.8z"/>
		<path d="M346.2,86.1v-1.2c-0.9,1-1.8,1.3-3.1,1.3c-1.2,0-2.4-0.4-3.1-1.1c-1.2-1.2-1.3-3.4-1.3-5.3s0-4,1.3-5.3
			c0.7-0.7,1.8-1.1,3-1.1c1.3,0,2.2,0.3,3,1.2V69h3.1v17.1H346.2z M344,76.3c-1.9,0-2.1,1.5-2.1,3.6s0.2,3.6,2.1,3.6
			c1.9,0,2.1-1.6,2.1-3.6S345.8,76.3,344,76.3z"/>
		<path d="M355,80.8c0,1.6,1,2.8,2.7,2.8c1.4,0,2-0.4,2.8-1.2l1.9,1.8c-1.3,1.3-2.5,2-4.8,2c-3,0-5.8-1.3-5.8-6.4
			c0-4.1,2.2-6.4,5.4-6.4c3.5,0,5.4,2.5,5.4,6v1.4C362.8,80.8,355,80.8,355,80.8z M359.5,77.3c-0.3-0.7-1-1.3-2.1-1.3
			c-1.1,0-1.8,0.6-2.1,1.3c-0.2,0.5-0.3,0.8-0.3,1.3h4.8C359.7,78.1,359.7,77.8,359.5,77.3z"/>
		<path d="M378.7,86.1h-7.2V69h6.9c3.3,0,5.3,1.9,5.3,4.8c0,1.9-1.2,3.1-2.1,3.5c1,0.5,2.4,1.6,2.4,3.8
			C383.9,84.4,381.7,86.1,378.7,86.1z M378.1,72h-3.3v3.9h3.3c1.4,0,2.2-0.8,2.2-2S379.5,72,378.1,72z M378.3,78.9h-3.5v4.2h3.5
			c1.5,0,2.2-1,2.2-2.1C380.6,79.9,379.8,78.9,378.3,78.9z"/>
		<path d="M394.1,86.1V85c-0.8,0.9-2,1.3-3.1,1.3c-1.2,0-2.3-0.4-3-1.1c-1-1-1.3-2.2-1.3-3.6v-8h3.1v7.6c0,1.7,1.1,2.3,2.1,2.3
			c1,0,2.1-0.6,2.1-2.3v-7.6h3.1v12.5C397.1,86.1,394.1,86.1,394.1,86.1z"/>
		<path d="M404,86.1c-2.6,0-3.6-1.8-3.6-3.6V69h3.1v13.3c0,0.7,0.3,1.1,1.1,1.1h1.2v2.6H404z"/>
		<path d="M412.9,86.3c-2,0-3.7-0.2-5.3-1.8l2-2c1,1,2.4,1.2,3.3,1.2c1.1,0,2.2-0.4,2.2-1.3c0-0.6-0.3-1.1-1.3-1.2l-2-0.2
			c-2.3-0.2-3.6-1.2-3.6-3.5c0-2.6,2.3-4,4.8-4c1.9,0,3.6,0.3,4.8,1.5l-1.9,1.9c-0.7-0.6-1.8-0.8-2.9-0.8c-1.2,0-1.8,0.6-1.8,1.2
			c0,0.5,0.2,1,1.3,1.1l2,0.2c2.5,0.2,3.7,1.6,3.7,3.7C418.2,84.9,415.8,86.3,412.9,86.3z"/>
		<path d="M427.4,86.1V85c-0.8,0.8-1.6,1.2-3.1,1.2c-1.4,0-2.4-0.4-3.2-1.1c-0.7-0.7-1-1.7-1-2.8c0-2,1.4-3.6,4.3-3.6h3v-0.6
			c0-1.4-0.7-2-2.3-2c-1.2,0-1.8,0.3-2.4,1l-2-1.9c1.2-1.3,2.4-1.7,4.5-1.7c3.5,0,5.3,1.5,5.3,4.4v8.2H427.4z M427.4,80.8h-2.5
			c-1.1,0-1.8,0.5-1.8,1.4c0,0.9,0.6,1.4,1.8,1.4c0.9,0,1.4-0.1,2-0.6c0.3-0.3,0.5-0.8,0.5-1.6L427.4,80.8L427.4,80.8z"/>
		<path d="M441,86.1v-7.6c0-1.7-1.1-2.3-2.1-2.3c-1,0-2.1,0.6-2.1,2.3v7.6h-3.1V73.6h3v1.2c0.8-0.9,2-1.3,3.1-1.3
			c1.2,0,2.3,0.4,3,1.1c1,1,1.3,2.2,1.3,3.6v8H441z"/>
	</g>
</g>
</svg>
